<svg id="Слой_1" data-name="Слой 1" xmlns="http://www.w3.org/2000/svg" viewBox="0 0 887.36 637.71"><defs><style>.cls-1{font-size:79px;}.cls-1,.cls-3{fill:#005596;}.cls-1,.cls-3,.cls-7{font-family:Ubuntu-Bold, Ubuntu;font-weight:700;}.cls-2{letter-spacing:-0.04em;}.cls-3{font-size:36px;}.cls-4{letter-spacing:0.01em;}.cls-5{fill:#cee2a4;}.cls-6{fill:#f05133;}.cls-7{font-size:21.4px;fill:#6d6e71;}.cls-8{letter-spacing:-0.04em;}.cls-9{letter-spacing:-0.02em;}</style></defs><title>ban</title><text class="cls-1" transform="translate(68.97 66.87)">Все о <tspan class="cls-2" x="224.59" y="0">к</tspan><tspan x="268.04" y="0">оронавирусе</tspan></text><text class="cls-3" transform="translate(150.32 629.75)">2-14 ДЕНЬ | ПЕРИОД ИН<tspan class="cls-4" x="431.45" y="0">К</tspan><tspan x="456.51" y="0">УБАЦИИ</tspan></text><path class="cls-5" d="M213.69,235.33c-1-.33-.66-1.65-2.83-2S207,232,206,233s0,1-2,1.65-7.67.66-8.83.66-4.34,0-4.51-1.16.34-2.3-1.33-2.3-2,.66-3.34-.34a9.89,9.89,0,0,0-3.18-1.65,14.56,14.56,0,0,0-5.15-.82c-1.18.16.33,1.15-2.34.82s-.5-1.64-4.18-1.81a26.35,26.35,0,0,0-8.33.82c-3,.66-5.17.33-6.51,1s-1.83,2-3.67,2.15-2.66.66-5.67-1-1-1.82-4.5-2.15-9-1.31-11.84-1.65-4.67-2.8-6.84-2.63-2.84,1.15-5,2-3,.5-6.67.66-5.68-.66-7,.5-.83,2.15-3.18,2.47-6-.16-7,.34-2.34,0-2.67,1.81a5.23,5.23,0,0,0,.84,3.79c.33.5,1.32,1.82-1,2.32a26,26,0,0,1-6,.16c-.67,0-4.17-.33-5,.66s-2.16,2.63.67,3.14,7.84.49,5,1.48-7,2.14-7,2.14-4-.82-5,1.49-2.17,2.31-4.17,3.3-2.5,3-2,3.46,2.66,1.16,2.66,1.83,1.34,2.14,2,2.14,3,.17,3,.17-3.67,3.13-4.34,4.28-.33,2.47,1.84,2.47,5.5-2.8,6.83-3.46,1.51-.66,3.84-2.8,3.18-2.64,4.51-3,1.67-1.65,4-3,4.33-3.3,5-3,1.84-.32.33,1-2,.82-2.83,2.14-3.33,2.15-2,2.81a5.59,5.59,0,0,0,4.33.17c1.68-.51,3.17-.17,4.17-2s.66-3,2.34-3.3,3.34-.17,3.67,1-.34,1.32,1.83,1.49,1.67.16,3.84.33,2.67.16,2.67,1.15-1.67.16.67,1.48,3.16.17,4.16,1.49a6.25,6.25,0,0,1,1.5,2.65,23.77,23.77,0,0,1,1,3.12c.33,1.83-.84,2.65-.34,4s1.67,1.49,1.17,3.79-.51,2.31-.83,4.13,0,2.48-.84,3.3-1,2,0,2.47,3.17,2.48,3.34,3.13-1,1.83-1,1.83,1.51,3.3-.5,3.3-4.66-1-3.83.66a6.89,6.89,0,0,1,.16,4.12,4.53,4.53,0,0,1-1.49,3.8,34.11,34.11,0,0,0-6.18,6.6c-1.66,2.64-4,4.29-3.33,6.76s-2.5,1.49-2.5,4.62.08,3.3.7,4.54a5.39,5.39,0,0,1,.38,3.71c-.25,1.36-1.75,3.84,0,4.58s3.12-.12,3.38,1.36,1.12,1.36,1.62,2.48,2-.37,1.87,1.48-1.24,3.84-1,5.7a29.53,29.53,0,0,0,1.87,5.93c.63,1.62,1.13,1.12,1.38,2.61s-.5.37-1,2.1-.64,2.6.11,3.34,1.75.38,2.38,1.37a4.44,4.44,0,0,1,.87,3c0,1.49-.12,2.36.5,2.73s1.38-.13,1.88,1.11,1.51,2.11,2.13,1.86,1.62-.87.62-2.11-2.5-2.47-2.5-3.83-.5-2.11-.5-3.59a6.29,6.29,0,0,0-.88-3.72,3.72,3.72,0,0,1-1.25-2.47c0-1.12.37-1.86-.49-3.34s-1.51-2.23-.88-3.72.37-2.59,1.25-2.84.25-2.48,1.62-.87,2.39,2.85,2.39,4.09a13.33,13.33,0,0,0,.49,5.19c.75,2,1.38,3.22,1.88,4.71a19.75,19.75,0,0,0,2.62,5.44c1.38,1.86,2.26,1,3.13,3.47s3.26,6.31,3.38,7.67a10.93,10.93,0,0,1-.26,3.59c-.24,1.24.89,2.6,1.26,3.47a8,8,0,0,0,2,3.09,7.21,7.21,0,0,1,2,2.23c1.13,1.61,2.38,1.36,3.76,2s3.75,1.48,4.38,1.73,3.13,1.11,4,2.23a3.63,3.63,0,0,0,4,1.36c1.75-.49,2.75,0,3.13-1s2.5-1.49,2.74-1.11a16.09,16.09,0,0,1,1.39,2.6c.25.74,2.24.86,3.25,2.35s3.25,1.61,4.25,2.1.62,1.23,1.76,1.49,1.87.12,3.75.49,2.87-1,3.24.61.5,3,1.26,3.35,1.75,1.11,1.75,1.61-.75,2.73.5,3.83,1.87,1.49,3,2.61,2.63,1.73,3.25,2.6,2.26.86,2.88,1.48a5.92,5.92,0,0,0,2.63,1.11c.62.13,1.25-.62,1.5-1.23s-1.25-.13.25-.62,3.5-.74,2.5-1.36a4.49,4.49,0,0,0-3-.87c-1.13.12-1.25.5-2.88.12s-4.25-.62-5.12-2a5.29,5.29,0,0,1-1.14-3.83c.26-1.24-.12-1.49.63-4.58s.38-4.08.26-4.46,1.12-.74,1.24-1.86-1-2.1-1.62-2.47,2.25-1.6-1.5-1.6-3.75-.13-5.63.48-3.63,1.74-4-.12-.88-2.23-.26-2.72a6.28,6.28,0,0,0,1.26-3.71,10.35,10.35,0,0,1,0-2.11,2.86,2.86,0,0,0,2-1.11c.64-1,0-1,.88-2.1s.26-3.85.63-4.09,2.12-1.61.63-2-1.13-.87-2.51,0a4.29,4.29,0,0,1-3,.74c-1,0-1.63-.37-2.25.87s0,2.11-1.12,3.22-2.38,1.36-2.38,2.23-1.63,1.6-3.38,1.48a12.77,12.77,0,0,0-5.13.74c-2,.62-2.63,1.86-4.25-.87s-2.5-3.83-2.5-7.54,1.25-6.07,1.37-9.41-.38-3,.87-3.71,1.88-1.24,1.88-2.48-.62-1.48-.13-2.72.38-2.1,1.14-2.1,1.5.36,2.37,0a12.89,12.89,0,0,0,3.12-2.36c.88-.86,2.51-1.6,2.76-2.72s.5-1.11,2.5-1.24a23.59,23.59,0,0,1,5.13.13,14.5,14.5,0,0,0,4.38.24c.75-.24-.63-1.72,2.12-1.23s3.51.74,3.63.37-.38-1.12.5-1.36.88-.62,1.87-.25,2.13-.12,2.26.75-.13,1.6.88,2a3.17,3.17,0,0,0,1.86.37c1.14,0,.39.38,1.14,0s1.62-.74,1.75.5.38.25.75,2.47-.5,1.74,0,3.47a10.66,10.66,0,0,1,.63,3.1c0,.74.62,1.23,1.25,1.72s0,.62.62,1.25,1.5.86,1.75.24,0-1.86.63-2.22a2.37,2.37,0,0,0,1.12-2,9,9,0,0,0-.26-3.59c-.49-1.48-1.25-1.23-1.25-2.35s.39-1.23.39-2-1.26-2.35-.39-3.34,1-2.85,2.51-4.33,4.13-2.35,5.38-3.47,0-2.23,1.51-2.84,2-1.12,3.12-1.24,1.13-1.11,1.37-1.86a2.1,2.1,0,0,1,2-1.36c1,0,1.75.25,2.24-.87s-1-3.21.26-4.7-.37-3.22.5-3.59,3.63-.25,4.13-.87,1.26-2.22,1.75-2.71.88.36,1.88-1.12.25-2.35,1.63-3a19.64,19.64,0,0,1,5.62-1.12c1.12,0,1.5,1.25,2.26,0a24.6,24.6,0,0,0,1.37-3.34c.49-1.11.49-3.59,2.5-3.59s2,0,2.38-.61.25-1.12,1-1.24a26.36,26.36,0,0,0,3.14-.12c.62-.25.87-.75,1.37-1.74s-.25-.49.5-1,1.63-.12,2.25-.25,1.38-2.1,2.12-2.1,1.76-.37,1.88.74-1,1.85-1.88,2.48-.12-.87-.87.61-1.87,1.12-1.5,2.11.38,1.49,1.5,1.73,1.63-.49,2.38-1.36.37-1.86,1.63-2,2.12-.12,2.87-.24,3-.26,3.25-.75,1.26-2-.24-2-3.64-.25-3.64-.62.63-.25-.24-1.48-1.12-1.61-.63-2.35.63-2.48,1.25-3.47.88-2-1.37-2.23-2.51-.87-3.75-.49-2.76-.38-3.51,1-.13,1.24-1.76,1.73a16,16,0,0,1-2.61.74c-.38,0-1.38-.49-.38-1s.87-.75,2.12-1.49,3.13-2.35,4.63-2.72,2-.13,3.13-.5.12-1.61,2.25-1.73a27.86,27.86,0,0,1,4.63.12c1.88.13,3-.87,3.76.13s0,1.6,1.62,1.73,2.76-.5,4.13-.74,2.38-.13,2.88-.75.87-.49,1.12-1.48-.25-1.86.64-1.86a29.42,29.42,0,0,0,3.24-.12,2.36,2.36,0,0,0,2.13-1.24c.5-1,.74-2.22,1-2.6s1.49-1.11.25-1.86a12.5,12.5,0,0,1-2.38-2.1c-1-.87-.5-1.61-1.37-2.48s-1.89-1-2.13-1.73-2.13-3.46-2-5,.51-1.36,0-2.6-1-1.48-1-2.1.24-1.86-1.13-1.49-1.88-.62-2.62,1-.39,1.73-1.14,2.22-1.62-.49-2.87.25-3.38,1.86-3.38.24-.26-1.86,0-2.47a9.67,9.67,0,0,0,.5-2.85c0-.87.51-1.24-.5-1.73A7.37,7.37,0,0,1,263,251s.25-1.36-1.5-1.36-1.87,1.11-3.5.74-1-.74-2.75-1-1.64-.87-2.63-.25-1.75-.25-1.87,1.73,1.24,2.72-.52,3.09-2.12-.12-2.24,1,.63,1.86-.37,2.47-2.26.26-2.76.88a2,2,0,0,0-.62,1.73c0,1,.5.75.25,1.85a4.25,4.25,0,0,1-.76,2.11,12.5,12.5,0,0,1-2.62,2.48c-1,.86-1.87,1.23-2.87,2s-1.14-.24-2.14,1.61-2,4.09-2,4.09a11.48,11.48,0,0,1-1.25,3.71c-1,1.73-2.38.87-3,1.73s-.37,2-1.75,1-2.63-.86-2.5-2.22-.5-2.23.26-3.35-.76,0,.74-1.11,1.37-1.11,1.88-2.23.74-1.36.5-1.85-.13-.62-2.13-.62-2,.37-2.75-.12a20,20,0,0,1-2.63-2.85,4.48,4.48,0,0,0-2.25-1.49c-1.25-.49-.88.37-2.38-1s-.5-2.35-2.13-1.61-2.5,2.36-3.12.87-1.5-3.46-1.25-4-.25-.5-.38-1.73,0-1.12.88-2-2-.25,2.38-2.73,5.38-3.09,6.63-3.84,1-1.36,2.74-1.85a18.42,18.42,0,0,1,4.26-.87c1,0,3.38-2.72,4.38-3.09a15,15,0,0,1,4-.62,3.25,3.25,0,0,0,2.5-1.24c.63-.74.13-1.73.63-1.85a10.79,10.79,0,0,0,1.87-.5c.5-.25.88-1.11,1.25-1.11s1.13-.25,1.76-.25,4.75-.12,6,0a3.63,3.63,0,0,0,3.38-1.61c.63-1.11-.38-2.1,1-2.72s2-.62,2.5-1.73,3-1.37.38-2-3.12-1.23-4.25-.61-1.49-.12-2.75,1.23-2,1.48-3.63,2.61-.75,1-2.25,1.11-1.75-1.49-2.5-2.11-1-.24-1.5-1.11-1.63-.87-1-1.61a8.42,8.42,0,0,1,.63-.74c.86-1,2-1.62,1-2.11s-.62-2.47-2.62-1.48-2.75.62-3.38,1.61-.87.86-1.37,1.73a3.26,3.26,0,0,0-.51,2.6c.13,1.49.63,2.47-.25,2.72s-1.87-.87-2.75.25-.37,1.36-2.75,1.36-2.88-.74-4.13-.87a30.51,30.51,0,0,0-3.75.25c-.75,0-1.63-.37-2.26,0A28.47,28.47,0,0,1,213.69,235.33Z" transform="translate(0.65 -35.24)"/><path class="cls-5" d="M215.86,229.34c1.51-.25,3-.12,3.88-1.36s.25-.86.49-2.23-.24-1.73.76-2.6.75-3.34,0-3.58-.87.24-2.25.74-.12.62-2.76.87-2.74.36-4.62-.13-3-1.61-4.63-1.36a3.72,3.72,0,0,1-2.63-.49s-.12-1.12-3-1.37-2.5-1.48-5.37-.61-5.38.37-6.51,1.6-1.88,1.37-3.25,2.11-4.12.86-2.25,1.73,2,1.49,4.75,1.36,2.37-1.24,4.5-1.48,3.51-.87,4.26-.37,1.87,1.23.62,2-2,1.35-.5,1.85,3.13.49,3.37,1.12,1,1.11-.62,1.24-4.37-.74-4.5,0,.75,1.6,2.13,2.1.5.87,3.75.49,3.75-1,5.12-1,3.51.37,5,.5S215.86,229.34,215.86,229.34Z" transform="translate(0.65 -35.24)"/><path class="cls-5" d="M256.64,219.69s.38-1.49-.63-1.12-1.49.38-2,1.24-.74,1-2,1.62-1.5-.25-1.87,1.23-2.13,1.49-1.88,2.1-.25.87,1.88,1.24,2.75,0,4.74.49,1.63.5,4.26,1.13,3.25-.26,5.51.49,3.13-.49,4,1.23.75,2.35,2.25,3.35.75,1.61-.12,2.59-2.76.63-3.38,1.86-.76,1.86-1.87,2.36a11.56,11.56,0,0,1-3.38.49c-1,.12-.51-.62-2.63.49s-3,1.37-1.63,2a23.54,23.54,0,0,0,4,1c.86.25,3.12-.12,3.5,1.24a5,5,0,0,0,1.5,2.72c1,1.12,1.87,1.24,3.12,1.87s3,1.72,3.25.49-.62-1.73-.24-3.1.38-1.85,1.13-1.49.62,1.24,1.5,1.49a4.21,4.21,0,0,0,3.49-.5,2.29,2.29,0,0,0,1.51-2.84c-.13-1,.24-1.36-.63-2.11s-1.75-.61-1-2-.63-2.11,1.25-2.11,2.63-.87,3.12.5-.49,1.73.88,2.1,2.13.87,2.38.12-.25-1,.88-1.48,1.87-.62,2.25-1.61,1.63-2.47-.51-2.85a21.53,21.53,0,0,1-4.37-1.23c-1.37-.5-2.63.49-2.38-1.49s-.51-1.48.25-2,2.76.25,1.64-1.24-1-2.35-3-3.09-2.5-.49-3.5-1.11a7.32,7.32,0,0,1-1.76-1.37c-.62-.62-.87-1.36-2.13-1.11s-1.62,1-3.24,1.11a4.12,4.12,0,0,1-2.76-.49c-.37-.25-.24-2.11-1.88-2.11s-1.74-.24-3,.13-2.26-.62-3.13.37-1.63,1-2,1.74-.37,1.6-1.38,1.23a9.53,9.53,0,0,1-2-1.11s.24-1.36.75-1.36S256.64,219.69,256.64,219.69Z" transform="translate(0.65 -35.24)"/><path class="cls-5" d="M275.28,212.76c-1.26,0-4.63-.5-5.38-.37s-2,.37-2.62.49-3.51.12-3.51-.62-.38-.73,1.38-1.35,1.87-.75,3.12-.75,3.89.13,5.26-.37,1.75-1.74,3-2.23a11.56,11.56,0,0,0,2.62-1.36,6.09,6.09,0,0,0,1.13-1.73,14.24,14.24,0,0,0-2-1c-.75-.25-1.87-.63-1-1.37a3.63,3.63,0,0,1,2.5-1c.88,0,3.51.37,4.26.24s.38-1,1.87-1.23,1.63-1.12,3.88-.87,1-.62,5.13.62,4.75,1.24,5.75,1a15.93,15.93,0,0,1,2.37-.62c1-.12,2.63-.37,4.26-.62s4.88.37,3.62,1.24-1,1.85-3.62,2-4.38-.49-6,.88-1.87,1.61-5.38,2.1-5.12.25-6.63.74-2.74.5-3.87,1.61a7.93,7.93,0,0,1-3.5,1.74c-1.13.37-3,.37-3.25.86a5.94,5.94,0,0,1-.63,1.11C277.41,212.88,275.28,212.76,275.28,212.76Z" transform="translate(0.65 -35.24)"/><path class="cls-5" d="M259.77,206.94c.41-.72.87-1.85,2.13-2.1a10.71,10.71,0,0,1,2.24-.5c.88,0,1-.61,1.51-.86s-.25-1.49.87-1.49,2.63.37,2.75.74,0,.75.88,1.24-.49,0,.87.5,2.76.62,1.63,1.49a5.19,5.19,0,0,1-3,1.36c-1.26.12-.63-.38-2.51,0s-2,.12-3.13.37-.87.49-2,.49S259.13,208.05,259.77,206.94Z" transform="translate(0.65 -35.24)"/><path class="cls-5" d="M319.31,202.11c-1.25.14-4.13-.24-5,.62s-1.63.62-2.88,1.24-2.5,0-3.25,1.12.62,1.36-1.88,1.85-2,0-4.26.62-3.24.25-4.37.87-2.25-.62-3,.62-2,2.22-.88,3.09.63.86,4.13,1.24a38.78,38.78,0,0,0,7.75,0,4.89,4.89,0,0,1,3.13.74,6.42,6.42,0,0,1,2,2.1,1.28,1.28,0,0,1,1.38,1c.25,1.11-1.26,2.1-.63,3.09s.88,2,2,2.35,1.75-.61,2,.62,1.87.5,1.25,2.6-1.38,1.74-2,2.23-1.75.62-.75,1.61,1.63.87,1,2-3.25,1.12-3.75,1.49-2.76,1.73-2.89,4.09a9.16,9.16,0,0,0,.63,4.33c.5,1.73-.75,2-.87,2.73s.24,1,.37,2.47-.75,2,.12,3,.26,1.35,2,1.73,3.14-.87,4.39.49.62,1.73,1.63,2.1,0,.26,1.87.5,2,.75,3.13-.62,1.12-2.22,1.88-3.46.24-2.47,1.74-3.22,3.5.12,4.63-1.48a12.36,12.36,0,0,0,1.76-3.35c.61-1.48.25-1.73,1.87-2s2.63,0,3.5-.62.25-1.23,2.13-1.36,3,.37,4.38-.49,3-1.24,4.37-2.23,1.76-2.72,2.63-3.09,1.88-.25,4.13-.25,2.63.13,4-.49,2.37-.51,3.63-1.37,1.25-1.11,3-1.11,2-.5,2.26-1.11.37-1.49-1.25-2.11-3.14-2.1-1-1.61,2.26.12,2.75.62a2.94,2.94,0,0,0,1.5,1c.63.13,1.63,0,1.75-.5s1.51-1.24-.25-2.1-2.12-1.36-2.62-1.48-1.63,0-.87-.87a3.66,3.66,0,0,1,1.75-1.11s.37-.87,3.37-.87,4.13.12,4.63-1.12-.13-1.36.5-2.1a2,2,0,0,0,.63-2c-.13-1-2.25-.25-.13-1s2.75-.74,3-1.12,1.37-.61.5-1.24-.12-.11-.87-.61-1.26-1.23-.75-1.73,2.25-.74,3.62-1.61,1.38-1.73,2.5-2,.75-.5,2.26-.62,3.12-.37,3.88-.37,2,.12,1.13-.75-.13-1.6-2.26-1.73-2.63-.12-4.38-.12a34.28,34.28,0,0,1-4.5-.74c-1.25-.13-1.63-.87-2.38-1.24s-4.13-2.23-6.38-1.73-2.5-.13-6.38.25-6.87-.13-9.63.61a60,60,0,0,1-8.76,1.37c-2.37.24-1.87-.5-6,.12a30,30,0,0,1-8.39-.12s-3.62.74-6.49,1.36-3.13,1-5,.74A11.11,11.11,0,0,0,319.31,202.11Z" transform="translate(0.65 -35.24)"/><path class="cls-5" d="M367.85,243.33c-.51-1-1.63-3.47-.76-4s-1-.37.88-.5,1.75,1.37,3.12,1.61,1.26-.37,1.63-.74-1-1.24,1.26-1.24,2.12-.36,3.74,0,2.25.62,2.88.13-1.37-.75.63-.49,1.88.49,2.37,1.23,3.26-.25,1.76,1.48-1.38,2-3.13,2.11-2.88-.37-3.63,0-.88.74-1.63,1-1.37-.75-1.87.38.5,2-1.5,1.6-2.88-1.49-3.26-1.49-.5.38-1.25,0A3.62,3.62,0,0,1,367.85,243.33Z" transform="translate(0.65 -35.24)"/><path class="cls-5" d="M249.22,409.76c-1.51-1-4.84-2-5.34-2.8s-2.66-3.8-2.66-3.8a4.39,4.39,0,0,0-3.51-.66c-2,.49,1.34,1-2.67,1.15s-5.17.83-5.33,0,.5-1.65-1.34-1.65H224.2a18.75,18.75,0,0,1-3,0c-.84-.17-.84-.49-1.67-.33s-1.34.83-2.34.49a2.92,2.92,0,0,1-1.5-1.48s.85-1.65-1.66-.49-3.17.49-4.17,1.81a12.87,12.87,0,0,0-2.17,4.29,11,11,0,0,1-1.34,2.8c-.32.67-2,2.15-2.66,3.63s-1,2-.51,3.64-.83,3.3-.33,4.12-.16,3.14-1.16,4.62a31.58,31.58,0,0,0-2.51,3.47A8.89,8.89,0,0,0,198,431.7c-.5,1.66-2.17,2.32-2.67,3.3a4.32,4.32,0,0,0-.17,2.48s-2,4.13-1,6.11,1.66,2.47,1.82,3.63,1.67.49.17,1.15-2.5-.66-3.17,0-1.83,1.16-.83,2.31,1,4.62,2.84,6.6,3.33,3,4.16,4.79.51,1.81,2.67,3.79,6.83,9.08,8.17,13,1.84,5.28,4.67,6.1,3,.17,5,1.66,6.17,7.92,6.34,9.9,0,4.45.17,8.9-1,6.45-.17,9.25-.5,2.47.84,5.12,1.17,4,1.17,7.59-.17,4.46.5,5-.33,6.93-.5,10.06-.67,5.12-.34,8.42-1.16,6.6.17,8.58,1.51,3,3.17,3.47,2-.33,2.34,1.16,4.5,12.2,4.5,15.18,1,4.61,2.16,6.75,4,1.82,3.84,4.13-2,3.31.34,4.29a11.71,11.71,0,0,0,5,1c1,0,.83-1.31,2.34-.82s2,1.81,2.5,2.48.67.16,2.66.66,4,1.15,5,.66,1.16-.82,1.16-1.82,1-1-.82-1.81-1.51-1.32-3.34-2-1,1.49-1.84-.65-2.16-4.62-2.16-5.45-.84-1.48-.17-2.31a8.39,8.39,0,0,0,2-2.81c.66-1.64,1-3.8.5-4a7.66,7.66,0,0,1-3.51-1.32c-1.49-1.15-3.17-2.48-2.33-3.63s.84-2.15,1.83-2.47.83.82,1.17-1.15.34-1,.34-2-.68-2-.34-2.81.33-1.65-.5-2-2.5.17-1.84-1.65-.83-1.15.68-1.81,2.5-.33,2.83.17,1.17,1.48,2.34.32,1.33-2.14.83-3a6.57,6.57,0,0,1-.67-2.14s.84-.83,1.5-.83h3.18s3.5-1.32,3.5-2.47.66-1.32.66-2.48.34-1.32-.16-2.31-.34-.82-.5-2.31-.84-1.82-.5-2.31,3.33-1.15,4-1.15.66-.17,1.67-.66,4-2.31,4.16-3.14,0-1.49.34-2a6.82,6.82,0,0,1,1.16-1.81,8,8,0,0,0,1.5-2.31,45.27,45.27,0,0,0,1-5.29s2.84-1.47,3.85-3.29.32-3.8.15-6.11-1.66-2.64-.15-5,.15-2.48,2.66-4,2.34-2,4.51-2,6.16,0,7-.65,4-4.45,3.68-7.1-.17-2.3,1.16-5.78,1.67-4.11,1.83-5.61a21.28,21.28,0,0,0,.18-3.63c0-2-1.34-1.64-.5-3.79a29.78,29.78,0,0,1,2.16-4.29,36.28,36.28,0,0,0,3.67-5.77c1-2.32,3.18-5,3.34-5.95s1.17.33,1.17-3.14a32.24,32.24,0,0,0-.51-5.28c0-.82.34-1.31-1.33-2.8a27.35,27.35,0,0,0-4.5-3c-1.84-1.15-3.68-3.62-5.67-4s-1.34-.84-4.51-.67-.33,1.49-4.16.16-3.51-2-5-3.13-1.33-2.14-4-2.47-3.35-.67-4.85-.5-2,.33-3.16-1.32-1.85-2.81-1.85-2.81-.32-4.62-2-7.59a17.81,17.81,0,0,0-6.34-6.1,10.13,10.13,0,0,1-3.34-1.65,9.91,9.91,0,0,0-5.67-1.82,5.73,5.73,0,0,1-2.66.33,3.82,3.82,0,0,1-3.84-3.13,22.82,22.82,0,0,1,.17-2.48Z" transform="translate(0.65 -35.24)"/><path class="cls-5" d="M666,395.07c.34-.66-.17-1.65,1.34-1.16s3,.82,3.32,2,1.68.82,2.51,2.47.17,2.8,1.34,3.46,2.5.83,2.83,1.49,2.17,1.82,2.17,3,0,1.82,1.17,1.82.66-2,2.16-2,2.18-1.48,2.83-1.81a9.1,9.1,0,0,0,2.35-2,12.57,12.57,0,0,0,1.5-3c0-.5.15-3.47-.67-5.12a11.74,11.74,0,0,1-1.67-4.95s-.32-1.77-.53-2.39-.74-.95-1-1.79-.42-.74-.84-1.26-1.47-1.15-1.68-2.09a5.64,5.64,0,0,0-1.15-2.1c-.53-.84-1.48-1.16-2.09-1.79s-.33-1.79-.33-3,.64-.63,1.37-1.05,0-.53-.32-1.15a8.62,8.62,0,0,1-.05-2.81c.5-1.15-.17-1.48,1.5-1.48s2.83-.5,3.66,0a5.26,5.26,0,0,0,2.35,1c1.5.32,2.5.82,3.5-.34a4.75,4.75,0,0,1,3-2.14c2-.66,4-.82,6.17-2a47.39,47.39,0,0,0,5.34-3.31c1.67-1.14,2.33-1.31,3.5-3.62s.49-4,1.33-5.94a29.43,29.43,0,0,0,1.34-5.78,4.27,4.27,0,0,0-.83-2.64c-1-1.65-1.68-2-1.34-3.3s.66-.83.5-2.31-4-3.46-4.33-5.11-.51-3.47-2.17-4.3-3.16-.33-3.16-1.48-.68-2.3.65-2.3,2.17.65,2.51-.34-.32-2.14.34-2.14,1.16-1.66-.17-1.66-1.67-.33-2.17,0-.51.67-1.34.67-2,0-2.33-.5a19.27,19.27,0,0,0-2.5-2s-3,.49-3.17-2,0-2.47,1.33-2.81,1.34.17,2.16-.82,2-2.47,2-2.47,1.5-.66,1.83.16-.16,2.81,1.34,3a8,8,0,0,0,2.67-.16s1.33-.34,2.34-.5,1.66.5,3,1.15,2,0,2.33,1.16-1.67.82.67,2.31,3,1,3.17,1.65.82.66,1,2.15-1,1.49.49,2.8a9.32,9.32,0,0,1,2.35,2.47c.33.66-.51,1.32.82,2.15s1.5.82,2.51.5l2.5-.83a1.85,1.85,0,0,0,1.34-2.15c-.17-1-.84-3.13-1.84-3.79s-1,.17-2-1.48.17-1.16-1.84-3.14-2.66-1.65-3.17-2.31-2.16-1.32-1.33-2.64.67-1.82,1.5-2.31,1.67,0,1.84-1.81-.84-2.65-.67-3.31.34-1.48,1.16-1.48a22.43,22.43,0,0,0,2.68-.33,8.62,8.62,0,0,0,3.33.33c1-.33,1.5-1.66,1.83-2.8s-.33-2.15.51-3.15a5.36,5.36,0,0,0,1.66-3.79,18,18,0,0,0,0-4.45,13,13,0,0,0,0-3.64c-.33-1.15-1.33-2-2-3s-1.51-1.32-2.17-3a18.75,18.75,0,0,0-3-4.13s-2-1.49-3-2.32a5,5,0,0,0-3.17-1.15,15.81,15.81,0,0,1-2.84,0c-1.17-.16-1.33-.81-2.5-1.65s-1.67-1.48-2.67-1.48a14.74,14.74,0,0,0-2.66,0c-1.17.16.34-2.64,1-4a23,23,0,0,0,1.5-4.46c.83-2.81.5-2.65,2-3.79s1.66-1.65,3.16-1.65,5,0,7.51-.17,3.51-1,5.34-.5,3.33.83,3.67,1.49a2.38,2.38,0,0,0,2.5.83c1.16-.17,2.49-.17,2.68-1.33s-.34-1.64-.51-2.47a5.28,5.28,0,0,1-.34-2.15c.17-.65.17-1.81,1.34-2s3.34-.32,3.83-.32.51-.83,1.34.32.83,1.33,1.84,1.33,1.17.33,1.66,0,.67-2.15.67-2.15-1.33-1.16.5-1.16,2.5-.65,3,.83.33,1.65.67,2.63,1.66.5,1.33,1.66-.67.83-1.16,2-1,1.49-1,2.15.32.82.16,1.64-1.16,1.16-1.33,1.66a12.43,12.43,0,0,0-.51,2.64,4.35,4.35,0,0,0,1.51,4.12c1.5,1.49,3.33,2.81,3.83,4s2.17,1.81,2.17,3-.67,1.33,1,2.15,1.84.66,2.67,1.64,2.33,1.66,2.67,2.15,1.5.5,2.17-.16.66-1.33.16-2.64-.83-1-.83-2a12.14,12.14,0,0,1,.33-2.31c.17-1-.33-1.16.17-2.15s1.5-2,0-3.63-2.83-1-3-2.47a7.25,7.25,0,0,0-.49-2.64c-.33-.66.67-1.17-.84-1.33s-2.16.17-2.49-.32-1-.5-.84-2-.33-3.46.16-3.79.17-.33,1.18-.49-1.18-.17,1-.17a19,19,0,0,1,3.68.33s-.51-1.31,1-.66l1.49.66s2.85.16,3.67-.83,2.34-2.64,2.34-2.64a14.86,14.86,0,0,1,2.25-3.13c1.25-1.24.25-2.72.25-3.71s0-1.24-1.25-1.74-1.5-.74-3-1.24-.26,1.74-1.51-.49l-1.25-2.22s.76-1.5,2-1-.5,0,1.25.5a7.36,7.36,0,0,0,3,.5c1.26,0-.74.49,1.26,0a22.68,22.68,0,0,0,4-1.5l1.5-1,1-1.49a4.58,4.58,0,0,0-2-1.73,22.33,22.33,0,0,0-5.76-1c-2.74-.24-2.74-.24-4.5-.49s-3.49-1.48-4.5-1.73-4.25-1.49-6.25-1.49-1.51-.24-4.25-.24-2.25-.25-4.26,0-1.5-.25-5,.24-4.25,1.74-4.25,1.74-.26.74-2.5.74a52.59,52.59,0,0,1-7-.49c-1.26-.25-5-.5-5-.5s-4.5,1.48-8,.25-4.75-2.73-8.75-3-5-.49-8-.49a29.61,29.61,0,0,1-5.51-.5c-2-.24-3-2-5-2s-.25-.25-4-.25-3.25.25-5.75-.25-2.51-1.73-4.76-1.24a32.65,32.65,0,0,0-4,1L663.42,225c-1.5.49-3.74-.25-4.5-.25s.76,1.49-1.75,1.73-3.26,1-4.76-.24-1.75-2.72-3.49-3.71a8.25,8.25,0,0,0-5.26-1.49,33.51,33.51,0,0,1-5,0,31.72,31.72,0,0,1-5.5-.74c-2.25-.5-2.25-.74-4-.74s-3.5-1-6.26-.75a43.39,43.39,0,0,1-4.5.25c-.75,0-.75-.74-2.25,0s-1.75,1.74-4,1.74h-2.26s-2.25-2-.49-2.48,2.25-.74,2.5-2.23.25-2.72-.75-3a43.69,43.69,0,0,0-6.76-1h-4.5c-3.5,0-7.25.74-10.51.5s-4-.5-6.26.49a10.2,10.2,0,0,1-5.24,1.24c-2.26,0-3-.25-4.51.25s-2.75,3-2.75,3a39.2,39.2,0,0,1-4.76.49c-1.75,0-5.25-.74-5.25.25s-.75,1.24.5,3.21.5,2.24-.5,2.24-3.25-.25-3.25-.25-2.25-1.48-3.26-1.24-2.25,1-2,2,0,1.73,1.24,3.22,3,1.24,3,2.23v2.72c0,1-1.5,3.46-2.5,3.71s-4.26,2.72-5.75.25-2-3.22-1-5,3.25-.24,1-3.21-1.26-1-2.26-3,0-4-1-4-4.25-2.23-5.5-.75-1.5,1.74-1.76,3-1.5,3.21,1,4.45,2,1.49,3.75,2.23,1.24-.74,1.75.74,2.5,2.48-1.5,2.48-9.26-.5-11.26-1.74-6.25-2-8.25-1.23-1.5,1.73-5.75,2-6.26.25-7.26.25-1,.49-3,1.73-4.75,2-6,1.24-.5-2-2.26-2.23-.75-2.48-1.74-.25a7.83,7.83,0,0,0-.5,4.46s1.49,1.23-.25,2-3.51,1-4.76,1.48-2.75-1.24-4,.25-5.76,2.23-5.76,1.49-2.51-4.46-2.51-4.46-1-2.48,1.51-2.48h6.5a2,2,0,0,0,1.75-1.23,4.5,4.5,0,0,0-3.5-2.72c-2.75-.51-3.75-.51-4.75-1a24.9,24.9,0,0,0-6-1.23c-2.25-.25-6.26-1.74-7-2.48s1.51-2-3.75-2a93.45,93.45,0,0,0-10.76.74s-4.75,3-7.5,4.46-3-.74-5,3-1.49,4.21-3.24,6.19-2.26,2.72-3.26,3a50.76,50.76,0,0,0-9.25,4.95c-2.75,2-2,2.47-3.26,3.21s.25,3.47-.75,5.69-3.75,3.23-.49,4a20.82,20.82,0,0,0,5.75.74c1.49,0,1.49-1,2.25-1.48s1.76-2,2.76-2.24,2-.74,2.74-.24.75.5,1.25,1.73,0,2.23,1.26,2.72a6,6,0,0,1,2.24,2s-2,2-.25,2.24,2.25.74,3.26.24-.76.25,1-.49,1,2,1.76-.75-.51-3.95.49-4.7-1,.5,1-.74,2.75-2.48,2.75-3.71.75-1.74-.25-2.48-.25.74-1-.74-1.24-2.72-.49-4a5,5,0,0,1,3.49-2.72c2-.5,2.75-.5,3-1.74s-.51-2.47.25-2.72,1.25-1,2.5-1,2.75-.5,3.25.25,1.5.49.5,2,.51-.25-1,1.48a15.92,15.92,0,0,0-2.75,4,11.16,11.16,0,0,0-.25,2.47l2.5,2.22a4.79,4.79,0,0,0,2.5,1,12,12,0,0,0,3,0,10.82,10.82,0,0,1,4.26-.49c1.75.25,2-1.73,1.75.25s3.75.74-.25,2-4.25,1.48-6.26,1.48-3.75-.5-4.75.49a5.29,5.29,0,0,0-1.75,3.72c0,1.48-.5,1.73-.5,3s1,2.48-.25,3.22a11.6,11.6,0,0,1-4,1.73c-1.5.25-3.24,0-4.24.5a11.45,11.45,0,0,1-3.5,1.48c-1.51.25-2.26.75-4.52-.24s1.26-1.24-2.24-1a17.56,17.56,0,0,0-5.25,1s-2.51.24-3.51.49-1.51-.25-3.25.75a6.81,6.81,0,0,0-2.75,2.71c-.51.75-1.5.51-2.25,1s-2.25,1.24-2.51,2a4,4,0,0,1-2,2.73c-1.75,1.24-2.25.25-3.75,2s-1.76,2.23-3.26,2.47-2-.73-2.74.26,1,0-.75,1,.24,1-1.76,1-2.5-.24-3.25-.24-2-1-2,0-.75-1,0,1-.25,2.47,2,3.21l5.25,1.74a82.08,82.08,0,0,1-1.83,8.49c-.66,1.66-.67,3.14-3,3.14s-4.83.16-4.83.16a8.62,8.62,0,0,0-3.83-.82c-2.34,0-3.5-1-4.34-.16s-1.83.32-2.17,2.47a11.53,11.53,0,0,0-.34,4c.18,1.66.84.67.18,2.64s-1.34,3.3-1.34,4.46-.5,1.47,0,2.3.5,1,1.83,1.16a16.46,16.46,0,0,1,4.18,1.16,6.09,6.09,0,0,0,1.83,1c1,.33,1.17,1,2.83.49a30.42,30.42,0,0,1,3.17-1c1-.17,2.34.65,3.84-.17s1.5-.49,2.5-2.31.83-2.31,2.34-4.29,2.16-2.48,2.67-3.14-.17-.66,1.67-1.82a13.8,13.8,0,0,0,3-2.3c.67-.66.34-1.65.67-2.65s-.33-1.31,1.17-1.81,1.66-1.16,3-1.16,3.34.17,3.34.17a10.17,10.17,0,0,0,3.83-.17c2-.48,2.68-.82,3.34-1s2.67,0,3.17.65a4.46,4.46,0,0,1,1,1.82c.5,1.33.67,1.16,1.67,2.14a32.35,32.35,0,0,0,3.5,3.14c1.34,1,2.17.67,2.51,1.49a10.62,10.62,0,0,0,1.49,2.31c.84,1.15.51,1.32,1,2.47s1.16,2,2.16,1.82,1.34-.16,1.34-1.49-.33-.33,0-1.32.67-.82,1.17-1.81,1.65-1.49.65-2.14-.49-.84-2.32-1.16-2.5-.17-4-1.82-2-3.3-3.5-4-2.5-.83-3.17-1.64a3.69,3.69,0,0,1-.66-3.14c.33-.83,1.66-.5,2.33-1s1-1.66,2.84-.83,3.17.5,3.83,1.65,1.5,1.66,3.34,2.65,2.32,1.81,4,3.12,2.5,1.49,2.66,3.47a12.14,12.14,0,0,0,1.34,4.13,11.1,11.1,0,0,0,1.51,3.14c.83,1.15,1.33,1.48,1.49,2.47s-.5,2.14.5,2.8.84.34,2,.83,1.33-.66,1.67-1.15a4,4,0,0,0,.83-2.81V314.7c0-.82-1-2.14,1-3s3.5-1.66,5-1.66,2.51,1,3.34-.32a6.18,6.18,0,0,0,.83-3.48c0-.81-1.5-3.3-.33-4.11s2.5-1,3.51-2.32,0-2.64,1.5-3.3,2.49-1.16,3-1.32a18.12,18.12,0,0,1,3-.33c.51,0,1.51,1.32,1.67,2.15s0,2,1.34,2,.5.33,1.34,0,1-2,1-2.48-.5.17,0-.49,1.34-.5,2.34-.83,1.67-.17,2.51-1.15a20.64,20.64,0,0,0,1.66-2.47s1.17-1.49,1.5-.18a13.64,13.64,0,0,1,.33,3.47c0,1,.16,1-.33,1.81s-1.5,1.33-.16,2.65a8.55,8.55,0,0,0,3,2.15c1.33.66,3.33,1.31,3.5,1.81s1.49,1.31,1.32,2.47,1.51,1.82.68,2.81-.84.66-2.33,1.81-1.34,1.49-3.51,1.33-3.34-.51-3.34-1a1.27,1.27,0,0,0-.71-1.14c-.44-.25-.62-.12-.87-.37a2.43,2.43,0,0,0-1.26-.5c-.43-.07,0,.56-.88,0s-.05-.19-.87-.56-1.68-.68-1.68-.68l-1.76-.12a2.94,2.94,0,0,0-1.68.18c-.56.37-1.57-.18-2,.44s-.45.61-1.13.74-2.06.37-2.25.37a3.16,3.16,0,0,0-1.07.44c-.43.24-1.5.18-1.8.36s-.57-.12-1,.44-.87,1.17-1.07,1.36a1.11,1.11,0,0,1-.93.49c-.56,0-1.19-.12-1.38.07s-.44.24-1.06.43a8,8,0,0,1-1.26.37c-.43.06-1.06.13-1.18.31a8.15,8.15,0,0,0,.44,2.91,6.07,6.07,0,0,1,.68,2.23c-.06.68-.49,1.17-.18,1.6s1.25.63,1.44,1.12-.26,1,.49,1.3a7.64,7.64,0,0,0,1.7.49c.37.07,1.12-.18,1.56.12s.25.13.81.56.63.56,1.25.56a7.9,7.9,0,0,0,1.7,0c.31-.13.43-.62.68-.81s-.13.13.25-.18a2.56,2.56,0,0,1,2.25-.31c.62.37,2.11,1,3.11,1.64a2.52,2.52,0,0,0,2.5.48,1.93,1.93,0,0,0,.83-1.31.81.81,0,0,1,1-.83,4.44,4.44,0,0,1,2.84,1.15c.67.83,1-.16.83,1.66s-.83,2.14-.16,3,1.5.49,1.5,1.65-1,.83-1.17,2-.83,1.32-.33,2.3-.34,1,1,1.82,1,.5,2.67,1.65,1.83,1.48,1.83,2,.66,1.16-.5,2.15-1,1.16-2.51,1.32a13,13,0,0,1-5.16-1.16c-1.17-.49-1.17-1.15-2.5-1.15h-2.34a12.81,12.81,0,0,1-3.33-.33c-.67-.16-.17-.33-1.5-.33s-1.5.17-2.68.17A48.62,48.62,0,0,1,474,340c-2.22-.44-4.9-.88-6.23-1.32a17.19,17.19,0,0,1-2.67-1.1c-2-.88-2.89-1.76-4-1.55s-2.45,0-2.89.67-.89.66-.67,2.42,2.67.44.23,1.76-2.45,1.76-4.46,1.32-.66-.89-3.78-2-4.66-1.54-4.66-1.54a9.36,9.36,0,0,0-1.34-2.65c-.66-.65-.66-1.09-2.22-1.09s-4,.28-4,.28c-1.25-.26-4.25,1.48-5.25-1.74s-2-2.72-1.25-4.45a7.5,7.5,0,0,0,.75-4c0-1.74,4-1,0-1.74S427,322,425.26,323s-5.25.25-8.5,1a55.89,55.89,0,0,0-7,2c-1.26.5,0,1-3.51,1s-3.58.41-4.42,1.24-2.16.65-4,.82-2.67.66-3.5.16-.83-2-2-2-1.5-.82-2.67.17a5.52,5.52,0,0,0-1.5,2.81s.5.33,0,1.48-1.84,1.82-2.84,3-1.67,0-2.17,1.82-1.66,2.15-1.49,4.62-.17,3-1.51,4.95-2.83,1.32-4.33,3-5.66,11.88-8.34,14-2.49,3-3,5.62a41.29,41.29,0,0,0-.67,7.59,31.38,31.38,0,0,1-1.5,8.91c-.83,2-2.33,4.95-1.16,5.94s1,2.47,1.33,3.79.16,2,1.83,3.14,1.67,1.82,2.67,3.3.5,1.16,1.33,2.47-.17,1.66,1.51,2.64,3.5-1.15,3.5,1.49-1,2.48.5,4,1.66,1,3,2,2.17,1.15,3,2.31-.33.83,2.51,2.14,2.66,1.49,4,1.49a24.49,24.49,0,0,0,3.51-.16c1.17-.18,2.34-.83,3-.83a18.78,18.78,0,0,1,3-.16c.49.16,3.83-1.32,4.33-.34s1.34,1.15,2.5,1.15,1.33.18,2.34-.65,1-.5,1.5-1.65,1-1.15,2-1.15,1.5-.5,3.33-1.16a7.22,7.22,0,0,1,3.51-.33c.5,0,1.5-.16,2,.66a17.1,17.1,0,0,0,1.34,1.82,30.4,30.4,0,0,0,1.33,2.8c.5.83,1.33,1,3.33,1.15s0,.5,3.84.67,5,1.65,5.17,2.14a7.61,7.61,0,0,1,0,2c0,.83-1.17,1.82-1,4s-.16,2.48-.33,4.3-.83.82-.83,2.64-2.17.66,0,3.46,2.17,4.95,2.83,5.45a17.46,17.46,0,0,0,1.83,1.48c1.84,1.32.84-.66,2,2.65a11.26,11.26,0,0,1,.67,5.77c0,1.48,0,1.81,1.33,4s2,1.81,1.67,3.63-.51,1.48.34,3,1.67-1,1.34,2.48-2.34,7.76-2.85,9.58-1.33,1.64-1.66,3.79-.83,1.82-1,4.3-1,3.62-.17,4.77a11.19,11.19,0,0,1,2.67,4.79c.84,3,1.17,4.63,2.67,5.78s2-.33,2.17,2-.84,4.3-.35,6.61a31.57,31.57,0,0,0,1.68,5.77,27.54,27.54,0,0,0,1.83,3.8,36.74,36.74,0,0,0,2.34,4.45c.82,1.33,1.49,2.32,2.33,3.64a6.55,6.55,0,0,1,1.17,3.47c0,1,.33,1.81-.34,2.79s-1.33.83-1,2.15,0,.49,1.34,1.82a4.26,4.26,0,0,0,3.17,1.48c1.17.17,1.84,1,3.17,0s1.66-1.65,2.83-1.65,3.67.17,4.34.17,4.17.5,6-.5,3.16-1.31,4.17-2.64,1.16-2.47,1.83-2.47,3-1.66,4-2.81,1-3.13,2.49-4.12a7,7,0,0,0,3-3.31c.5-1.31.84-2.8.5-3.62s-.83-1-.16-2a47.71,47.71,0,0,1,3.83-4.94c.5-.33.68.49,2.17-1.16s2.33-1.65,2.51-3-.5-2.48-.34-3.63a15.57,15.57,0,0,0,.34-3.46,3.48,3.48,0,0,1-.18-3.14c.67-1.82,0-2.65,1-3.3s2.17-3.64,3.34-5.12,2.5-1.16,3.83-2.48,1.83-3,2.67-3.29,2.17-.33,2.5-2.32a32.18,32.18,0,0,0,.83-7.25c-.17-2.31,0-3.47-.67-5.28s-1.67-2.32-2-3.48-1.67-3-1.34-4.95.83-6.6.83-6.6a5.18,5.18,0,0,1,.17-2.14c.34-1.65.34-3.14,1-3.79s4.16-7.76,5.49-9.74,2-4.12,4.85-5.78a45.42,45.42,0,0,0,7.83-6.43c.67-.83,2.83-2.81,3.51-4.13s1.66-4.79,3-5.94a9.84,9.84,0,0,0,3.17-4.12c.66-1.82,1.66-1.65,1.66-4.46s-.84-3,0-4.29a6.06,6.06,0,0,0,.67-3.3,2.07,2.07,0,0,0-2.17-.33c-1.33.5-.67.49-2,1.16s-1.33,1-2.34,1-2-.66-3.16.16-2.51,1.65-2.51,1.65h-3c-3.51,0-4.18-.16-4.67-.33a3.22,3.22,0,0,1-1.68-2.14c0-.83.84-1.49-1-2.48s-3.16-.82-3.16-2a11.31,11.31,0,0,0-.33-3.47c-.34-.82.66-1.32-1.51-2.14A8.16,8.16,0,0,1,507.9,388l-1-1a5.34,5.34,0,0,0-1-4.45c-1.66-2.48-3.49-2.64-3.82-3.63s-.84-1.33-.5-4.79.5-5.28-.5-6.44-2.68-2-2.68-2.64-.83-1.15,0-2.14,1-.66,1.34-2.15-.17-2.47.49-2.47.68-1.32,1.85.49,2.5,2.65,3,3.8-.34,1.16.82,3,1.84,1.82,2,3.8,1,2.31,1.67,3.63,2.33,2.31,3.17,3.46a26.65,26.65,0,0,1,2.33,4.3c.5,1.14,2.18,1,2.5,2.3a10.8,10.8,0,0,1,.5,2.81v2.47a5.42,5.42,0,0,0,.84,2.64c.49,1,1.5,1.49,1.67,2.32s-.84,1.64,1.16,1.64,2.67.5,3.51-.49.33-1.49,2.67-1.65a12.07,12.07,0,0,0,6-2.47c.51-.66,1.84-.17,3.68-1.17s1.5-1.48,2.5-2.47.5-2.14,1.67-2.64,3.17-1.81,4.17-1.81,4.5-2.31,4.83-2.81,2.51,0,3.34-1.48a4.48,4.48,0,0,0,.84-3c0-1.16-1.5-2.64-.34-3.47s2-.83,2.5-1.82,1.51-1.31.34-2.8a16.73,16.73,0,0,0-2.68-3c-1-.82.34.16-1-.82s.5-1-3.17-2.47-3.34-1.66-5.17-.84a18.32,18.32,0,0,1-5,1.33c-.49,0-1.49,1-2.33.16s-1.34-1.16-1.34-2.31a3.26,3.26,0,0,0-1.66-3.29,14.56,14.56,0,0,1-3.84-4c-1-1.49-3.17-2.31-3.17-4a6.75,6.75,0,0,1,.51-2.8c.16-.5-.35-2.14.83-2.31s4-1,4.67.83,1.16,1.81,1.66,3.63a6.61,6.61,0,0,0,2.51,3.46c.66.5,1.66,1.32,2.49,1.82s1,.66,2.17,1.32a6.76,6.76,0,0,0,3.84,1l1.17-.17s-1-3.13,1.66-2.3,4.5,1.81,4.67,2.47.17.49,1,1.32,0,.33,2.17,1,3.49.49,4,.83,2.82.16,5.49.16a17.54,17.54,0,0,0,5-.83c.83-.16,2.33-2,3.32-.33s1.51,1.82,1.67,2.48a5.55,5.55,0,0,0,2.34,3A9.78,9.78,0,0,1,582,364.7a12.55,12.55,0,0,1,1,1.81,3.34,3.34,0,0,0,2.66,2.16l1.67.32,3-.32s-1-3.3,1.67.16,2.33,1.65,2.67,3.47,1.33,3.63,1.5,4.61.83,2.15.83,3,.84,2-.5,3.46,1.67,4.45,2.17,6.43,1,4.13,2.67,5.62,1.5.83,1.34,2.47,1.16,2.32,1.33,3.47-.67,3.3.67,4.13.16-.33,1.33.82,1.34,2.8,2.5,2,1.67-1.15,2-2.15-.15-.66,1.18-1.48,3-1,3.17-3.13-.51-3-.51-4.63-.33-3.3-.33-4.62-1-2.63.33-4,1.35-2.3,3.18-3.62,3.66-3.63,5.5-5.45,1.5-.67,3-3.63,3.18-3,3.84-4,.17-2,.67-2.81,2.18-1.32,2.83-1.65.33-1.82,1.67-1.16,1.5,1.16,3,1.33,1.5-.51,2.5-.34,3.68.33,3.84,2,.84,1.65,1.33,3a9.92,9.92,0,0,0,1.51,3,13.71,13.71,0,0,1,2,3,11.88,11.88,0,0,1,1,3.3,6.75,6.75,0,0,0,1.33,3.13,6.48,6.48,0,0,0,3.34,1.32c.83,0,1,.17,1.17-.83s-.84-2.8.65-2.48,3.18.67,3.52,1.83.66,2.47.66,2.47,1.5,6.11,1.5,7.09.5,4.46.67,7.11a21,21,0,0,1,.25,3.26,13,13,0,0,0-.31,2.83c.09.84-.32,1.37.09,1.58s.85-.42,1.06.21a5.66,5.66,0,0,0,1.57,2.09,2.22,2.22,0,0,1,1.16,1.37c.31.84.1,1.15.63,1.67s2.09,3.05,2.09,4,.22,1.47.32,2.73a5.39,5.39,0,0,0,1.27,3.15,12.9,12.9,0,0,0,2.09,2.1c.95.63,1.68.94,2.52,1.58s1.46,1,1.78.94.53-.42.84-.42,1.26.63,1.26.21.32-.73-.11-1.37-1.46-1-1.57-1.78-1.57-.94-1.05-2.11.11-4.5-.31-5.45a7.89,7.89,0,0,0-1.9-2.83c-.93-.84-1.57-1.15-2.2-1.68s-1-1.15-1.57-1.36a3.46,3.46,0,0,1-1.37-.84c-.72-.63-1.89-1.26-1.89-2.31a7.87,7.87,0,0,0-.2-2.31c-.21-.73.2-1.26-.42-1.26s-1,.74-1.58-.21a5.58,5.58,0,0,1-.53-2.41c-.1-.73-.41-2-.1-2.31a4.81,4.81,0,0,0,1-1.89c0-.42-.21-1.26-.21-1.58A8.68,8.68,0,0,1,666,395.07Z" transform="translate(0.65 -35.24)"/><path class="cls-5" d="M401,274.27c-.63,0-1.49-.25-1.49.87v2.1c0,.49.61.62.74,1.12s.88.74.12,1.23-1.62.38-1.74.87a6,6,0,0,0-.13,1.24,22.71,22.71,0,0,0,2.38.25,12.12,12.12,0,0,0,2,0c.87-.13,1.12-.75,2.51-.75s2,.26,2.87-.13,1.12-.12,1.63-.74-.13-1.6.49-2.22,1.63-1.24,1.75-1.61,1.38-1-.38-2.23-2-.87-2.37-1.49-1-1-1-2.09a2.31,2.31,0,0,0-1.12-2.12c-.75-.61-1-.49-2-1.23s-2-.86-1.62-1.61a5.55,5.55,0,0,1,.87-1.48c.5-.63,2.37-1.62.89-2.48s-.39-.86-1.51-.86-2.88.61-2.88,0v-1.74s.88-.62-1-.37-2.87,0-3,.49a2.62,2.62,0,0,0,0,1.74c.25,1-1.13,2.72-1.13,3.22s-.5.37.38,1.48.62,1.48,2.12,2.11.75-.38,1.51.61a6.67,6.67,0,0,0,2.25,2.36c.87.37.37-.5.87.37a2.61,2.61,0,0,1,.13,2.34c-.25.38.37,0-.88.38Z" transform="translate(0.65 -35.24)"/><path class="cls-5" d="M536.35,477.4c0-.67-1.44-.4-1.25-1.73a5.38,5.38,0,0,0-.67-2.85s-.87-.76-1.45-.1a8.61,8.61,0,0,0-1.34,2.49c-.3.75-.39,2.09-1.07,2.47a7,7,0,0,0-2,2.09,12,12,0,0,1-2.41,2,6.27,6.27,0,0,1-2.31,2c-1.25.47-1.06-.29-2.8,1.24s-1.64,5.62-1.64,7.14a28.74,28.74,0,0,0-.18,3.9,3,3,0,0,1-.48,2.48,19.09,19.09,0,0,0-1.44,2.66,7.33,7.33,0,0,0-.29,2.48c0,1.43.29,1.82.29,3.44a4.24,4.24,0,0,0,.76,2.94c.48.57,1.25,1.14,2.22,2.2s1.54,1.33,2.69,1.14a3.89,3.89,0,0,0,2.7-1.72,6.87,6.87,0,0,0,1.25-3.14,9.71,9.71,0,0,1,1.35-3.33c1.05-2.11.86-3.06,1.34-4.76s.28-4.1,1.25-5.05a11,11,0,0,0,2.41-3.62,18.61,18.61,0,0,0,1.24-3.81,44.68,44.68,0,0,0,.49-4.48s.58-.86,1-1.33S537,481,537,480.45v-1.62Z" transform="translate(0.65 -35.24)"/><path class="cls-5" d="M733,337.64a13.81,13.81,0,0,1-1-2.47c-.12-.75-.63-.51-.63-1.74s-.49-1.73.26-2.1.62-.38,1.13-1.24-.13-1.86.62-2.11a13.46,13.46,0,0,1,2.12-.86,15.08,15.08,0,0,0,2.13-.12,7.15,7.15,0,0,0,2.87-.74,16.5,16.5,0,0,1,1.51-1c.37-.24-.37-1.86.62-2.11s1.75-.24,2.26-.74a6.91,6.91,0,0,0,1.62-1.73,6.46,6.46,0,0,0,.63-2.35,17.43,17.43,0,0,0-.63-2.35c-.13-.5-1.37-1-1.37-2.1s-.25-1.24,0-1.86.37-1.73.75-1.73.12-1.74,1.37,0a19.33,19.33,0,0,0,2.88,3.09c.5.62.37,1,.5,2.23s.5,2.23.5,3a4.52,4.52,0,0,0,.76,2.11c.24.37.61.25.74,1a12.78,12.78,0,0,1,.13,2.23c0,.74.12,1.12.12,1.86s-.87.87-1.63,1.36a2.36,2.36,0,0,0-1,1.36,1.5,1.5,0,0,1-1.25.87h-1.5c-.62,0,.25-.25-.62,0s-1-1-1.75.24-.88,1.74-1.25,2a2.83,2.83,0,0,1-2,.25,6.18,6.18,0,0,1-1-1.11s-.26-.25-1-.12-1.24-1.24-2.12.12-1.51.74-.88,1.36,1.25.37,1.37,1.11-1,1.24-1,1.24-.75-.62-1.24-.12-.51,1.36-.51,2.35.63,1.73.25,2.23a2.94,2.94,0,0,1-1.37.73Z" transform="translate(0.65 -35.24)"/><path class="cls-5" d="M721.81,386.27a2.49,2.49,0,0,1,.84-2,2,2,0,0,0,.74-2c-.21-.63-.63-1-.83-1.78a9.94,9.94,0,0,1-.43-2.11c0-.41-2.62-1.15-2.62-1.15s-.84-1.47-1.37-.31a5,5,0,0,0-.73,3c.11,1.36.84,2.73.21,3.47s-1.37.51-1.15,1.67.21,2,1.25,2.63,1.79.63,1.68,1.36a11.29,11.29,0,0,0-.41,1.79c0,.74-.42,1.57.41,2.3s.85.95,1.57,1.16,1.16.94,1.27-.11-.11-1.46,0-2.1.41-.42.52-1.47-.31-1.15-.31-1.89A11.92,11.92,0,0,0,721.81,386.27Z" transform="translate(0.65 -35.24)"/><path class="cls-5" d="M657.7,417.22c-.32-.31-1.79-1.25-1.79-1.25s-.32-1-.72-.74-.43.95-.11,1.89-.42.84.63,2.1a19.45,19.45,0,0,0,3.24,3c.64.42,2.31.74,2.64,1.9s1,1.57,1.45,2.2,1,.94,1.59,1.67,2.3,4.52,3,5.56,1.37,1.26,1.69,2.53a26.6,26.6,0,0,0,1,2.83c.31.95.42,2.31,1.68,3.14s1.78.85,2.1,1.37,3.24,3.67,3.67,4.2a5,5,0,0,0,1,1.26,2.14,2.14,0,0,0,2.21.62c.62-.31.21,1.79,1.15-.73s1-2.73,1-3.36a5.07,5.07,0,0,1,0-1.78,10.55,10.55,0,0,0,.21-3.15c-.11-.73.52-1.26-.42-1.36s-1.27-.11-1.79-.21-.94-.32-1-1.26,0-1.68-.74-2.1-.53-.52-1.36-.74-1.68-.21-1.26-1.05,1.15-1.15.62-2.09-.41-1.79-1.25-2.11a4.86,4.86,0,0,1-2-.94,36.13,36.13,0,0,0-2.84-2.83c-1.05-.73-3.15-1.26-3.57-1.89a5.75,5.75,0,0,0-1.67-1.46,6.83,6.83,0,0,1-2.84-3.48c0-.41.21-1-.42-1.15s-.74-.31-1.68-.52-.84-.42-1.46-.42A13.18,13.18,0,0,0,657.7,417.22Z" transform="translate(0.65 -35.24)"/><path class="cls-5" d="M716.43,418.9s-.7-.21-.7-.49-.34-.7.07-.7h1.05a3.35,3.35,0,0,0,.84-.35s.07-.14.42-.21.7-.2.34-.63.15-.34-.34-.42a6.39,6.39,0,0,1-1.33-.42c-.64-.21-1.53-.63-1.53-.63a10.27,10.27,0,0,0-1-.76c-.29-.15-.71-1.19-.71-1.19a2.61,2.61,0,0,0-.63-.78c-.28-.13-.21-.9-.7-.9s-.56-.42-.91,0a3.21,3.21,0,0,0-.56,1.19,3.65,3.65,0,0,1-.83,1.89,9,9,0,0,0-1.33,1.12c-.49.56-.91.62-1.06,1.05s.28.77-.56,1.4-1.12.83-1.32.83-.63-.7-1-.07-1.69,2.8-1.75,3-.7,1.4-1.13,1.47-1.25.07-1.88.14a3.75,3.75,0,0,0-1.26.21c-.2.14-.84.21-.84.63s.21,1.19,0,1.61a4.45,4.45,0,0,1-1,1.54,2,2,0,0,1-1.61.21c-.28-.21-.77-.77-1.19-.84s-1.19-.77-1.54-.42a7.17,7.17,0,0,0-1,2.73,5.08,5.08,0,0,1,0,1.54c-.13,1-.56,2,0,2.86a6.33,6.33,0,0,0,1,1.33c.35.35,1.05.78,1.26,1.34s.49.06.84,2,1.06,2.3,1.68,2.52,2-.22,2.31.41.35.7,1,1.05.42-.14,1.54-.07,1.33-.56,1.54-.56.77.63,1,.77a2.16,2.16,0,0,0,1.19.14c.42-.07.9-.63,1.19-.2s.13,1.39.42,1.6.42.35,1.12.21a2.16,2.16,0,0,0,1.32-.84,3.57,3.57,0,0,1,1-.7,1.49,1.49,0,0,0,.91-1,6.1,6.1,0,0,0,.42-1.47c.07-.42,0-.42.07-1a6.06,6.06,0,0,1,1-2.58,4.54,4.54,0,0,0,1.26-1.4,2.35,2.35,0,0,0,.28-1.19c0-.56-.2-1.19,0-1.54s.29-1.05.49-1.54.35-1.33.64-1.27a10.06,10.06,0,0,0,1.25.57c.42.07,1.05-.57,1.26-.78s1.12-.27.21-.83a4.92,4.92,0,0,1-1.54-1.2c-.42-.48-.49-.48-.49-1s.77-.77.07-1.33a12.32,12.32,0,0,1-1.12-1.05c-.48-.42-1-.83-1.12-1.26s-.21-1,.07-1.19.84-.07.84-.7v-.63l.92-.63h.41l.84.07H717l.21-.42Z" transform="translate(0.65 -35.24)"/><path class="cls-5" d="M734.41,415.65c1.37-.52.52-1.89.52-1.89s-.73,0-.41-1.05.84-2,1.05-1.36.1,1.25.52,1.36.73.42,1.15,0,1.16-1.26.52-2-.94-.74-.94-1.47-.1-1.68-.1-2.2a10.07,10.07,0,0,0-.53-2.1c-.21-.74,0-1.57-.83-1.37s-1.58.11-1.79,1.26.1,1.79-.53,1.89a21.53,21.53,0,0,1-2.2.1.87.87,0,0,1-.42.63,2.74,2.74,0,0,1-1.58.21c-.41,0-.73-.31-1,.11s-.21,1-1.37,1.05-1.47-.63-1.67.21-.43,1.89-.43,1.89a5.59,5.59,0,0,0,1.15.1c.75,0,1.27-.94,1.79-.94s.21-.21,1.16-.11l.94.11a2.15,2.15,0,0,1,.74,1.36c0,.74-.53,1.26.31,1.68a9.58,9.58,0,0,1,1.46.84c.33.21.85.63.85.63Z" transform="translate(0.65 -35.24)"/><path class="cls-5" d="M732,431.91a5.61,5.61,0,0,0,1-1.15c.43-.62.11-.62.63-1.16a2.43,2.43,0,0,0,.64-1.25s.31-1.79-.53-1.47-.94,1.05-1.68,1.47a7.8,7.8,0,0,1-1.89.94,8.56,8.56,0,0,1-2.1.1,11.65,11.65,0,0,1-2.41-.41c-.63,0-1.16-.53-1.89-.42s-1.25.1-1.47.83a1.56,1.56,0,0,1-1.26,1.16c-.63.21-1.05-.31-1.26.74a26.12,26.12,0,0,0-.52,3c0,.52.31.52-.1,1.15s-1.27.11-1.48,2.21-.63,4.2-.2,4.61,1.05,0,1.15,1.16.53,1.15.42,2.31a7.27,7.27,0,0,1-.52,2.1s-.43.21.1.94.94,1.05,1.68.95.52-1.27.84-2.1a6.21,6.21,0,0,0,.21-2.31c0-.64.21-1.15.21-2.1a15.23,15.23,0,0,0-.11-1.78s.31-.63.74-.21.52,1.47.73,2.09a2.3,2.3,0,0,0,.84,1s1-.41,1,.84-.85,1.58,0,1.89.94.32,1.57-.2,1-.74,1.15-1.05.74.2.63-.85.63-.1-.09-1-.64.41-.75-.95.11-1.78-.73-2.73-.73-.21-.84-.94,0-1.26.53-1.57a3.74,3.74,0,0,0,1-.75c.42-.41.53-.83,1.06-1s.93.74,1-.42.84-1,.1-1.15a7.07,7.07,0,0,0-1.78-.11c-1.26,0-.84-.63-2,.11s-1.89,1.26-1.89,1.26a.63.63,0,0,1-.73.52c-.63-.1-1.16-.21-1.16-.52s-.63-.53-.73-1.37a9,9,0,0,1,.1-2.1,1.7,1.7,0,0,0,1.57-.52A1.76,1.76,0,0,1,724,431a20.62,20.62,0,0,0,2.31.22h1.47c.42,0,1-.22,1.37,0a3.15,3.15,0,0,0,1.46.62C731.16,431.81,732,431.91,732,431.91Z" transform="translate(0.65 -35.24)"/><path class="cls-5" d="M705.24,458.36a4.87,4.87,0,0,0-.32-2.21c-.31-.41,1.15-.2-.31-.41s-2.2.1-2.63-.53-.42-.84-.94-1.25a6.51,6.51,0,0,0-1.47-.74,4.83,4.83,0,0,0-1.68-.84c-.94-.21-1.36-1.26-2.2-.52s-.94.94-1.37,1A4.13,4.13,0,0,1,693,453a3.86,3.86,0,0,1-1.58-.21c-.73-.21-.42-.21-1.47-.84s-1.26-1.15-2.2-1.15a3.07,3.07,0,0,0-1.47.31h-2.52c-.52,0,.21-.52-.52,0s-1.89.63-1.89.94.41.84,1.36,1.05,1.58.32,1.78.64.12.52.53.83-1.05-.42,1.68.43,3.15,1,3.46.94.53-1.05,1.89-.53,1.15.73,2,1.05a5.83,5.83,0,0,0,1.47.52c.31,0,1.68.11,2.1.11s.31-.21.94,0,.63.42,1.47.53a12,12,0,0,0,1.89.1h1.47c.32,0,.41.31.73.53A2.41,2.41,0,0,0,705.24,458.36Z" transform="translate(0.65 -35.24)"/><path class="cls-5" d="M799.69,464.56c-.35-.51-1.27-1.27-1.37-2s.1-.94-.11-1.26-.31-.31-1.15-.63-.21.74-.84-.31,1-.53-.63-1.05-1.47.31-1.68-.53-.52-.94-.52-1.68.63-1-.42-1.57l-1.05-.63-.64-1.36s-.32-.74.64-.74h.94s.63-.74.42-1.15-.31-1-.62-1.27-.32-.62-1.16-.62-.63.52-1.47-.22a8.35,8.35,0,0,1-1.36-1.25,5.78,5.78,0,0,1-.43-1.36,1.63,1.63,0,0,0-.72-.85c-.64-.42-1.69-1.68-2.64-2s-1-.53-2.09-.95-1.89-.73-2.52-1.05a26.2,26.2,0,0,0-2.73-1.15c-.94-.32-1.47-1-3.25-1.26s-2.52-.1-3.68-.73-.94-.84-2.09-1.15-2.21-.63-2.73,0-.32,1.25-.74,1.46-1-.31-1.46.21-.11.43-.64,1.15-.41,1.27-1.36,1.37-1.15.42-1.47.21-.22-1.26-.84-1.58-.11-.52-1.15-.41a13.79,13.79,0,0,1-1.57.1h-2.32a5.55,5.55,0,0,1-1.68.43s-.1,1.25.53,1.56,1.15.64,1.26,1.05-.32.95.63.95.21.41.94,0-.21-1.26.94-.95a4,4,0,0,1,1.9.85,2.58,2.58,0,0,0,1.14.73c.64.21,1.16-.11,1.48.21a2.83,2.83,0,0,0,1.89,1.05c1.36.31,2.09.53,2.31.84a5.5,5.5,0,0,0,1.36,1.26c.63.42.32-.73.63.42s.42,1.78.53,2.2a3.51,3.51,0,0,0,.62,1c.22.32.85.73.63,1.37s-.1.94-.73,1-.42-.31-1.36.21-1.16.74-1.26,1.05-1.37.32-.64.84a4.82,4.82,0,0,0,2.42.84A5.79,5.79,0,0,0,770,457c.41-.1.73-.52,1.36-.3s1,.2,1.37.72a7.81,7.81,0,0,0,.83,1.26,4.39,4.39,0,0,0,1.68,1.16c.52.21.21.21,1.68.21H779a5,5,0,0,0,.84-.84c.42-.53-.41,0,.42-.53s1.47-.31,1.78-.83.1-1.15.43-1.37.31-.94.82-.94,1.38-.32,1.69-.21.21.42,1,.73,1.26,0,1.78.74,1.37,1,1.37,1.68-.11.94.84,1.78a8.66,8.66,0,0,0,1.79,1.26,1.05,1.05,0,0,0,.94,1.26,5.41,5.41,0,0,0,1.37.19c.32,0,0-.51.93,0s1.27.52,1.48.84a6.16,6.16,0,0,0,1.67.84,2.43,2.43,0,0,0,.67.18c.23,0,.24-.06.4-.12s.2,0,.29,0S799.78,464.69,799.69,464.56Z" transform="translate(0.65 -35.24)"/><path class="cls-5" d="M752.3,438.05s.16.58.37.69.26.31.53.47a1.84,1.84,0,0,0,1,.16,1.52,1.52,0,0,0,.9-.16,3.78,3.78,0,0,1,1.31,0l.94,0c.16,0,.21-.42.26-.63s.63-.31.63-.31.27-.43,0-.58-.42-.27-.31-.42a1,1,0,0,1,.47-.22s.21-.41.11-.62a1.28,1.28,0,0,0-.47-.58c-.27-.15-.22.32-.27-.15s.16-.74-.11-.85a2,2,0,0,0-.89-.26,2,2,0,0,1-.83-.15,2.91,2.91,0,0,1-.58-.27c-.21-.1-.32-.32-.74-.32s-.26-.41-.95-.36a4.43,4.43,0,0,0-1.3.21,2,2,0,0,0-.74.53c-.11.15,0,.25-.53.41s-.68-.16-.83.27,0,.79-.16.94-.42.12-.27.47.17.63.58.8a3.31,3.31,0,0,0,.95.15l.21.26Z" transform="translate(0.65 -35.24)"/><path class="cls-5" d="M778.59,467.28a11.14,11.14,0,0,1-.52-2s-.42-.84-.84-.53-.21.32-.63.84-.21.84-.74,1.58-1.15,1.15-1.37,1.78,0,1.47-.2,2.2a15.07,15.07,0,0,0-.21,2.63c-.11,1.26-.74,2.52-.85,3.88s0,2.2-.62,3.15-1.26,2.21-1.79,2.94,0,1.05-1.47.84-2-.32-2.2-.74,0-1.36-1.36-2a17.71,17.71,0,0,0-2.2-.74c-.74-.31-1-.73-1.57-1.57s-1.17-.84-1.79-1.26-2.84-1.05-2.21-1.89,1.37-1.47,1.68-1.89a7.29,7.29,0,0,0,.53-2.1.84.84,0,0,1,.73-.62c.63-.11,1.36.2,1.58-.64a21.38,21.38,0,0,0,.62-2.09c0-.43,1.26-.85-.62-.85s-2.1.53-3.37.42a8.78,8.78,0,0,1-2.09-.21c-.74-.21-1.68-.93-2.31-.93s-1.16.1-1.37-.32,0-.95-.73-.95-1.47-1.05-1.68-.1a6,6,0,0,0-.21,2.3c.1.74-.83,1-1.26,1.05s-2.2-.2-2.72.22a11.81,11.81,0,0,0-1.38,1.57c-.62.73.11.63-1,1.26s-1.36.11-1.78.63a2,2,0,0,0-.42,1.57c.1.32,0-.73.1.32s.41,1.89-.53,1.78-1.78-.95-2.2-.84.21,1.78-.94,0-1.58-2.52-2.31-2.41a4.14,4.14,0,0,0-2,.62c-.53.42.31-.41-.53.42s-1,.54-1.68,1.16-1.15.74-1.37,1.05l-.21.32s-1.35,1.78-1.78,2.41.1,1.26-1,1.57l-1.15.32a7,7,0,0,0,0,1.75c.13.56.48,1.05-.15,1.05s-.48.07-1-.28-.84-.35-.78-.77.5-.07.08-.42-.22-.77-.78-.42-1.19.7-1.19.91-.2.34-.55.84a3.3,3.3,0,0,0-.43,1.75c0,.42-1,1.25-1.46,2.31a5.07,5.07,0,0,1-1.54,1.89,8.41,8.41,0,0,1-2.73,1.39A14.34,14.34,0,0,1,713,492c-.56.14-.91.21-1.11.56s-.43.42-1.12.77a7,7,0,0,1-2.1.42s-1.2.49-1.41.56-2.65.35-2.94.85-.69.13-1.61,1a6.25,6.25,0,0,1-1.53,1.2c-.21.13.21-.5-.21.13a2.49,2.49,0,0,1-1,1c-.21.07-.42-.35-.84-.14a1.38,1.38,0,0,0-.7,1.05,7.1,7.1,0,0,0-.14,1.26,1.81,1.81,0,0,1-.42,1,8.22,8.22,0,0,0-1.12,3,6.44,6.44,0,0,0,.22,2.3,4.37,4.37,0,0,1,.34,1.4c.08.5.21.77-.21,1.25s-.48.08-1,.51a1.22,1.22,0,0,0-.49.84,2.11,2.11,0,0,0,.07.83c.14.42.35,2.87.56,3.64S696,517,696.21,518s.49,1.46.56,2-.28,1.75-.07,1.82-.56,2-.35,2.58.29,2,.42,2.59-.21.49-.36,1.26-.2.42-.48,1.2-.69,0-.83,1,0,.91-.29,1.34-.42.48-1,.62-1.26-.21-1.26.21-.35,1.61-.35,1.82a1.8,1.8,0,0,0,.78,1.19c.49.28.76.14,1.18.7s.14.49,1,.77a7.2,7.2,0,0,0,2.25.28,5.2,5.2,0,0,0,1.67-.28c.7-.21,1.75-.77,2.17-.84s.42-.28,1-.56a2.77,2.77,0,0,0,1.46-1.26c.36-.7-.06-1.05.5-1.12s2.31-.48,2.66-.43.9.08,1.47.15,1.67-.28,2.24-.15a6.35,6.35,0,0,0,1.33.29,5.26,5.26,0,0,0,1.54.07c.83-.07,1.74.07,2.16-.63s.7-1.54,1-1.75a2.77,2.77,0,0,1,1.26-.63,14.41,14.41,0,0,0,1.68-.42c.42-.21,1-.48,1.47-.76a10.05,10.05,0,0,1,2.45-.57,11.88,11.88,0,0,1,1.68-.13,4.13,4.13,0,0,0,1.46-.15,4.9,4.9,0,0,1,2.38-.91,2.74,2.74,0,0,0,1.82-.49c.78-.35.63-.42,1.12-.48s2.17.07,2.66-.08a5.3,5.3,0,0,1,2.1-.21,1.39,1.39,0,0,1,1.12.7c.35.5.56.5,1.25.84a24.21,24.21,0,0,0,3,1.19c.22,0,.15.29.15.78s.2-.08,0,.48-.28.84-.07,1.12-.08.49.56,1-.22.69-.07,1.26.21.56-.14,1-.85,0-.5.77.15.77.71,1,.28.77,1.25.14a6,6,0,0,0,1.68-1.47,6.58,6.58,0,0,1,1.19-1.12c.71-.56.56-.85,1-1s.35-.63.7-.84,1.4.14,1.68-.49-.34-1,.28-.63.84.78.42,1.26a2.37,2.37,0,0,1-1,.83c-.35.15-.91.08-1.18.43a17,17,0,0,0-1.34,2.1c-.28.56-.77.42-1.26.77s-.35.42-.49.77-1.32.07-.14.35,1.89.35,2.11.07-.5.35.2-.28.35-1.4,1.12-1.4,1.05-.28,1.05.07.14.63-.07.9a5.19,5.19,0,0,1-.91.78c-.42.35-.84.49-.91.84s-.7.7-.07.76a5.83,5.83,0,0,0,1.26-.06c.42,0,.49-.07.77-.07s.42-.08.56.42a9.93,9.93,0,0,1,.21,1.47,1.09,1.09,0,0,1-.21,1.39c-.7.57-.91.85-.56,1.76s-.07.9.77,1.33,2.51.35,2.66.76-.35.63.49.7,1.33-.07,1.54.35.27.77.84.84a8.7,8.7,0,0,0,1.25.08,2,2,0,0,0,1.06-.57c.21-.28-.42,0,.21-.28s.55-.77,1-.84,1.26-.21,1.41.07a1.75,1.75,0,0,0,.55.7c.29.22-.28-.49.29.22s.13.34.55.7.21.41.77.27.64-.42,1-.56a7.72,7.72,0,0,1,1.41-.41c.2,0,1,.2,1.32-.22a3.78,3.78,0,0,0,.56-1.12,1.76,1.76,0,0,1,.63-.28c.35-.06,1.54-.21,1.54-.21s1-.07,1.89-.2a10.68,10.68,0,0,0,2.38-.64c.62-.28.7-.9.91-1.11a32.67,32.67,0,0,0,2.23-2.88c.42-.69.36-1.4,1.06-2s1.61-1.54,1.81-1.75,2.18-3.22,3.07-3.85,1.2-1.61,2.32-2.24a10,10,0,0,0,2-1.19c.56-.49.56-1,1.12-1.53s.76-1.27,1.4-1.69a5.28,5.28,0,0,0,1.4-1.47c.06-.2.84-1.18.84-1.61a5,5,0,0,1,.28-1.46,16.8,16.8,0,0,1,1.26-1.75s1.68-1.47,1.61-2.66-1-1.61,0-3a11.58,11.58,0,0,0,1.33-3.91,15.19,15.19,0,0,0,0-3,1.82,1.82,0,0,0-.43-1.68c-.62-.62-.41-1-1.26-1.88s-1.18-1.12-1.53-1.54-1.26-1.41-1.26-2.1a3.16,3.16,0,0,0-.35-1.68c-.22-.22-.92-.49-1-.84a8.61,8.61,0,0,1-.57-1.4,9.63,9.63,0,0,1-.41-1.89c0-.21.28-1.47-.21-1.54a6.07,6.07,0,0,1-1.53-.7s-1.41-1.4-1.62-1.68-1.26-1.33-1.26-1.33a2.38,2.38,0,0,1-.91-1.74c-.14-1.26-1-3.43-.69-4.48s.27-.63.27-1.47-.27-1.61-.21-2.66a7.14,7.14,0,0,0-.21-1.89,6.05,6.05,0,0,0-.91-1.4,2.23,2.23,0,0,0-.91-.28,2.55,2.55,0,0,0-1,0,4.32,4.32,0,0,1-1,.14c-.22,0-.29-.42-.29-.91a6.28,6.28,0,0,1,.35-1.46,18.34,18.34,0,0,0,.29-2.53,5.48,5.48,0,0,0-.22-1,7.61,7.61,0,0,1-.49-1c-.07-.28-.13-.63-.13-.63Z" transform="translate(0.65 -35.24)"/><path class="cls-5" d="M759.87,554.51a12.62,12.62,0,0,1-2.29-.46c-.28-.09-.83-.82-1.2,0s-.73,1.19-.73,1.75a7.19,7.19,0,0,1,0,2c-.19.46-.46.46-.56.91s-1,1.57-.27,2.3.83.92,1.56.92,1.38-.65,2.21-.92a13.06,13.06,0,0,1,1.66-.46,2,2,0,0,0,1.46-1.37c.19-.38.09-.56.64-.92s1.2-1.66,1.66-1.94,1.1-.27,1.1-1,.36-1.19-.18-1.19-.56-.28-1.28,0a26,26,0,0,1-3,.64Z" transform="translate(0.65 -35.24)"/><path class="cls-5" d="M798.72,568.56c-.28.19.64,1.2,1.47,1.28s1.92.1,2.2.46,1,1.57,2.94.28,3.77-2.39,4.87-3,1.29-1.19,2.66-2.21,1.83-1.55,2.76-1.74.91.64,1.75-.28.92-1.37,1.64-1.74,1.48-1.19,2.21-1.56,1.75-.55,2-1,.91-2.2,1.19-2.49a4.53,4.53,0,0,0,.54-1.37s.46-.37-.09-1,.37-.36-.55-.64.28-.83-.92-.27-5.23,2.75-5.79,3.85-1.28,1.38-2.66,2.39-1.1,1.83-2.76,2.11a20.78,20.78,0,0,0-2.74.82c-1.47.38,2.38-1.47-2.67.84s-4.86,2.29-5.24,2.75.83.28-.36.45S798.72,568.56,798.72,568.56Z" transform="translate(0.65 -35.24)"/><path class="cls-5" d="M828.11,555.24c.08-.63.27-.92,1.1-1.74a6,6,0,0,0,1.1-1.47,1.58,1.58,0,0,0,.45-2c-.45-1.37-.08-1.84,1-2.85s1.56-.73,2.48-1.56,1.28-.92,1.28-1.92-.09-2.39,0-2.85,0-3,1.2-2.76,2,.73,2,1.38.1,2.38.1,3-.74,1.1,0,1.56.45.82,1.28.65.64-.56,1.37-.46,1.56-.19,1.56.63.28,1.2-.46,1.84a8.46,8.46,0,0,1-1.47,1.28c-.73.47.65-.09-.73.47s-2.21,0-2.67.64-.54.17-.91.83a6.58,6.58,0,0,0-.83,1.46c-.08.46.64.1-.55.84a20.8,20.8,0,0,0-2.39,1.56c-.55.45.37-.37-1.19.83l-1.56,1.19a2.23,2.23,0,0,1-1,.27C828.74,556.07,828.05,555.67,828.11,555.24Z" transform="translate(0.65 -35.24)"/><path class="cls-6" d="M137.36,313.62a8.48,8.48,0,1,1-8.48-8.48A8.48,8.48,0,0,1,137.36,313.62Z" transform="translate(0.65 -35.24)"/><path class="cls-6" d="M179.77,248.6a8.48,8.48,0,1,1-8.48-8.48A8.48,8.48,0,0,1,179.77,248.6Z" transform="translate(0.65 -35.24)"/><path class="cls-6" d="M188.25,319.27a8.48,8.48,0,1,1-8.48-8.48A8.48,8.48,0,0,1,188.25,319.27Z" transform="translate(0.65 -35.24)"/><path class="cls-6" d="M216.52,282.52A8.48,8.48,0,1,1,208,274,8.48,8.48,0,0,1,216.52,282.52Z" transform="translate(0.65 -35.24)"/><path class="cls-6" d="M152.91,371.57a8.48,8.48,0,1,1-8.48-8.48A8.48,8.48,0,0,1,152.91,371.57Z" transform="translate(0.65 -35.24)"/><path class="cls-6" d="M254.68,423.87a8.48,8.48,0,1,1-8.48-8.49A8.48,8.48,0,0,1,254.68,423.87Z" transform="translate(0.65 -35.24)"/><path class="cls-6" d="M220.76,452.14a8.48,8.48,0,1,1-8.48-8.49A8.48,8.48,0,0,1,220.76,452.14Z" transform="translate(0.65 -35.24)"/><path class="cls-6" d="M299.91,453.55a8.48,8.48,0,1,1-8.48-8.48A8.48,8.48,0,0,1,299.91,453.55Z" transform="translate(0.65 -35.24)"/><path class="cls-6" d="M258.92,479a8.48,8.48,0,1,1-8.48-8.48A8.48,8.48,0,0,1,258.92,479Z" transform="translate(0.65 -35.24)"/><circle class="cls-6" cx="294.91" cy="462.13" r="8.48"/><path class="cls-6" d="M250.44,542.6a8.48,8.48,0,1,1-8.48-8.48A8.48,8.48,0,0,1,250.44,542.6Z" transform="translate(0.65 -35.24)"/><path class="cls-6" d="M414.4,392.77a8.48,8.48,0,1,1-8.48-8.48A8.48,8.48,0,0,1,414.4,392.77Z" transform="translate(0.65 -35.24)"/><path class="cls-6" d="M424.3,341.89a8.49,8.49,0,1,1-8.49-8.49A8.49,8.49,0,0,1,424.3,341.89Z" transform="translate(0.65 -35.24)"/><path class="cls-6" d="M381.94,369.05a8.48,8.48,0,1,1-8.48-8.48A8.47,8.47,0,0,1,381.94,369.05Z" transform="translate(0.65 -35.24)"/><path class="cls-6" d="M504.86,452.14a8.48,8.48,0,1,1-8.48-8.49A8.48,8.48,0,0,1,504.86,452.14Z" transform="translate(0.65 -35.24)"/><path class="cls-6" d="M462.93,417.27a8.48,8.48,0,1,1-8.48-8.48A8.48,8.48,0,0,1,462.93,417.27Z" transform="translate(0.65 -35.24)"/><path class="cls-6" d="M448.8,470a8.49,8.49,0,1,1-8.49-8.48A8.48,8.48,0,0,1,448.8,470Z" transform="translate(0.65 -35.24)"/><path class="cls-6" d="M551.51,373A8.48,8.48,0,1,1,543,364.5,8.48,8.48,0,0,1,551.51,373Z" transform="translate(0.65 -35.24)"/><circle class="cls-6" cx="574.93" cy="301.6" r="8.48"/><path class="cls-6" d="M462.46,285.35a8.48,8.48,0,1,1-8.48-8.48A8.48,8.48,0,0,1,462.46,285.35Z" transform="translate(0.65 -35.24)"/><path class="cls-6" d="M551.51,302.31a8.48,8.48,0,1,1-8.48-8.48A8.48,8.48,0,0,1,551.51,302.31Z" transform="translate(0.65 -35.24)"/><path class="cls-6" d="M500.62,343.77a8.48,8.48,0,1,1-8.48-8.48A8.47,8.47,0,0,1,500.62,343.77Z" transform="translate(0.65 -35.24)"/><path class="cls-6" d="M509.1,397a8.48,8.48,0,1,1-8.48-8.48A8.47,8.47,0,0,1,509.1,397Z" transform="translate(0.65 -35.24)"/><path class="cls-6" d="M519,258.49a8.48,8.48,0,1,1-8.48-8.48A8.48,8.48,0,0,1,519,258.49Z" transform="translate(0.65 -35.24)"/><path class="cls-6" d="M613.7,283.93a8.48,8.48,0,1,1-8.48-8.48A8.49,8.49,0,0,1,613.7,283.93Z" transform="translate(0.65 -35.24)"/><path class="cls-6" d="M636.32,230.22a8.49,8.49,0,1,1-8.49-8.48A8.48,8.48,0,0,1,636.32,230.22Z" transform="translate(0.65 -35.24)"/><circle class="cls-6" cx="647.62" cy="343.3" r="8.48" transform="translate(-0.14 -33.74) rotate(-0.13)"/><circle class="cls-6" cx="701.33" cy="286.76" r="8.48" transform="translate(411.87 951.47) rotate(-89.73)"/><path class="cls-6" d="M622.18,370.15a8.48,8.48,0,1,1-8.48-8.48A8.48,8.48,0,0,1,622.18,370.15Z" transform="translate(0.65 -35.24)"/><path class="cls-6" d="M731,517.15a8.48,8.48,0,1,1-8.47-8.48A8.47,8.47,0,0,1,731,517.15Z" transform="translate(0.65 -35.24)"/><circle class="cls-6" cx="675.13" cy="402.76" r="8.48"/><path class="cls-6" d="M726.78,423.87a8.49,8.49,0,1,1-8.49-8.49A8.49,8.49,0,0,1,726.78,423.87Z" transform="translate(0.65 -35.24)"/><path class="cls-6" d="M673,384.83a8.48,8.48,0,1,1-8.48-8.48A8.49,8.49,0,0,1,673,384.83Z" transform="translate(0.65 -35.24)"/><path class="cls-6" d="M760.7,491.71a8.48,8.48,0,1,1-8.48-8.48A8.48,8.48,0,0,1,760.7,491.71Z" transform="translate(0.65 -35.24)"/><text class="cls-7" transform="translate(87.65 110.49)">В подавляющем большинстве случаев эти симптомы связаны не с <tspan class="cls-8" x="171.34" y="25.67">к</tspan><tspan x="183.11" y="25.67">оронавиру</tspan><tspan class="cls-9" x="297.19" y="25.67">с</tspan><tspan x="307.35" y="25.67">ом, а с обычной ОРВИ</tspan></text></svg>