<svg id="Слой_1" data-name="Слой 1" xmlns="http://www.w3.org/2000/svg" viewBox="0 0 74.45 80.27"><defs><style>.cls-1{fill:#009ac7;}.cls-2{fill:#fff;}.cls-3{font-size:6px;fill:#005596;font-family:Ubuntu-Bold, Ubuntu;font-weight:700;}.cls-4{letter-spacing:-0.04em;}.cls-5{letter-spacing:-0.03em;}.cls-6{letter-spacing:0em;}.cls-7{letter-spacing:0.01em;}</style></defs><title>hands</title><path class="cls-1" d="M79,33.21a28.5,28.5,0,1,1-28.5-28.5A28.5,28.5,0,0,1,79,33.21Z" transform="translate(-14.25 -4.71)"/><path class="cls-2" d="M45.72,19.83a10.87,10.87,0,0,0-8.27,4.68,10.87,10.87,0,0,0,8.27,4.68c5.47.21,8.56-4.68,8.56-4.68S51.19,19.62,45.72,19.83Zm.15,8A3.83,3.83,0,1,1,49.69,24,3.82,3.82,0,0,1,45.87,27.8Z" transform="translate(-14.25 -4.71)"/><path class="cls-2" d="M47.26,23.77a1,1,0,0,1-1-1,1.06,1.06,0,0,1,.49-.86,1.94,1.94,0,1,0,1.1,1.74h0A1,1,0,0,1,47.26,23.77Z" transform="translate(-14.25 -4.71)"/><path class="cls-2" d="M55.67,43c-.47-.56-1-1.1-1.55-1.63-1.19-1.18-2.32-2.3-2.58-3.52-.11-.54-.18-1.08-.25-1.6A5.35,5.35,0,0,0,50.2,33a.29.29,0,0,0-.42,0,.31.31,0,0,0,0,.42,4.93,4.93,0,0,1,.92,2.86c.07.53.15,1.08.27,1.64.29,1.4,1.53,2.63,2.73,3.82.52.52,1.06,1,1.52,1.59a1.21,1.21,0,0,1,.21,1.41A3.27,3.27,0,0,1,53,46.33h-.24a6.81,6.81,0,0,0-1.5,0,5.82,5.82,0,0,0,1.64-.75c.57-.57-.12-.91-1-.46a3.61,3.61,0,0,0-1.19,1.36A2.32,2.32,0,0,0,50,47a2.24,2.24,0,0,1-1.66.72A2.17,2.17,0,0,1,46.7,47a2.32,2.32,0,0,0-.76-.5,3.61,3.61,0,0,0-1.19-1.36c-.86-.45-1.55-.11-1,.46a5.69,5.69,0,0,0,1.64.75,6.81,6.81,0,0,0-1.5,0h-.29a3.34,3.34,0,0,1-2.39-1.55,1.21,1.21,0,0,1,.21-1.41c.45-.54,1-1.07,1.52-1.59,1.2-1.19,2.44-2.42,2.73-3.82.12-.57.2-1.11.27-1.65a4.92,4.92,0,0,1,.92-2.85.31.31,0,0,0,0-.42.29.29,0,0,0-.42,0,5.35,5.35,0,0,0-1.09,3.19c-.07.52-.14,1.06-.26,1.61-.26,1.22-1.38,2.34-2.57,3.52C42,41.89,41.46,42.43,41,43a1.78,1.78,0,0,0-.29,2,3.78,3.78,0,0,0,3,1.88h.24a2.81,2.81,0,0,1,2.35.5,2.88,2.88,0,0,0,1.93.89h.08a2.78,2.78,0,0,0,2.07-.89,2.82,2.82,0,0,1,2.35-.5H53A3.86,3.86,0,0,0,56,45,1.78,1.78,0,0,0,55.67,43Z" transform="translate(-14.25 -4.71)"/><path class="cls-2" d="M68.25,32.55s0,0,0,0,0,0,0,0a.29.29,0,0,0-.13-.14h0s-2.54-1-3.56-1.55l-.31-.16a3.23,3.23,0,0,0-2.37-.51,2.9,2.9,0,0,0-1.1.42,1.72,1.72,0,0,1-1.85,0,3.12,3.12,0,0,0-1.12-.42,3.22,3.22,0,0,0-2.36.51l-.31.16c-1,.51-3.54,1.54-3.57,1.55l0,0h0l0,0a.27.27,0,0,0-.1.13s0,0,0,0v0a.25.25,0,0,0,0,.17v0a10.44,10.44,0,0,0,8.42,4.68,9.09,9.09,0,0,0,8.43-4.72h0A.37.37,0,0,0,68.25,32.55Zm-12.9-1.26.3-.16a2.67,2.67,0,0,1,2-.45,2.41,2.41,0,0,1,.93.35,2.23,2.23,0,0,0,1.21.34A2.11,2.11,0,0,0,61,31a2.44,2.44,0,0,1,.91-.34,2.65,2.65,0,0,1,2,.45l.31.16c.76.38,2.27,1,3.08,1.35a9.82,9.82,0,0,1-4.46.82h0a22.86,22.86,0,0,1-3-.21h-.09a22.41,22.41,0,0,1-3,.21,9.79,9.79,0,0,1-4.46-.82C53.07,32.3,54.59,31.67,55.35,31.29Zm4.44,5.54a9.53,9.53,0,0,1-7.14-3.39,11.58,11.58,0,0,0,4.08.61,22.23,22.23,0,0,0,3.06-.21,22.23,22.23,0,0,0,3.06.21h0a11.18,11.18,0,0,0,4.26-.67A8.71,8.71,0,0,1,59.79,36.83Z" transform="translate(-14.25 -4.71)"/><path class="cls-2" d="M67,17.31A22.34,22.34,0,0,0,51.1,10.74,22.82,22.82,0,0,0,34.79,49.51a22.26,22.26,0,0,0,15.88,6.56A22.91,22.91,0,0,0,73.55,33.31,22.3,22.3,0,0,0,67,17.31ZM37.45,20A19.19,19.19,0,0,1,51.1,14.3a18.8,18.8,0,0,1,12.06,4.33l-27,27.05A19.16,19.16,0,0,1,37.45,20ZM64.33,46.85a19.19,19.19,0,0,1-13.66,5.67A18.82,18.82,0,0,1,38.62,48.2L65.67,21.14A18.79,18.79,0,0,1,70,33.29,19.25,19.25,0,0,1,64.33,46.85Z" transform="translate(-14.25 -4.71)"/><text class="cls-3" transform="translate(0 71.75) scale(0.95 1)">Избегайте при<tspan class="cls-4" x="43.36" y="0">к</tspan><tspan x="46.66" y="0">основения</tspan><tspan class="cls-5" x="17.8" y="7.2">г</tspan><tspan class="cls-6" x="20.33" y="7.2">ла</tspan><tspan class="cls-7" x="27.41" y="7.2">з</tspan><tspan x="30.44" y="7.2">, нос и рот</tspan></text></svg>