<svg id="Слой_1" data-name="Слой 1" xmlns="http://www.w3.org/2000/svg" viewBox="0 0 62.14 93.7"><defs><style>.cls-1{fill:#009ac7;}.cls-2{fill:#fff;}.cls-3{font-size:10.89px;fill:#005596;font-family:Ubuntu-Bold, Ubuntu;font-weight:700;}.cls-4{letter-spacing:-0.01em;}.cls-5{letter-spacing:0em;}</style></defs><title>home</title><path class="cls-1" d="M80.89,32.37A31.07,31.07,0,1,1,49.82,1.3,31.08,31.08,0,0,1,80.89,32.37Z" transform="translate(-18.75 -1.3)"/><path class="cls-2" d="M50.7,35.38a1.63,1.63,0,1,0-2.37,1.43l-.54,3.91h2.55l-.56-3.89A1.63,1.63,0,0,0,50.7,35.38Z" transform="translate(-18.75 -1.3)"/><path class="cls-2" d="M49.49,27.71h-.84a2.52,2.52,0,0,0-2.51,2.51V31.8H52V30.22A2.51,2.51,0,0,0,49.49,27.71Z" transform="translate(-18.75 -1.3)"/><path class="cls-2" d="M61.07,23.32V16.53H55.42v2.15l-6.23-5.12-19.41,16H36.2V46.85h26V29.53h6.42ZM54.76,42.86H43.38V31.8h1.09V30.22A4.19,4.19,0,0,1,48.65,26h.84a4.18,4.18,0,0,1,4.17,4.18V31.8h1.1Z" transform="translate(-18.75 -1.3)"/><text class="cls-3" transform="translate(4.88 78.23) scale(0.95 1)"><tspan class="cls-4">К<tspan class="cls-5" x="7.34" y="0">арантин</tspan></tspan><tspan x="11.51" y="13.06">дома</tspan></text></svg>