<svg xmlns="http://www.w3.org/2000/svg" xmlns:xlink="http://www.w3.org/1999/xlink" viewBox="0 0 886.91 237.17"><defs><style>.cls-1{fill:none;}.cls-2{isolation:isolate;}.cls-3{fill:#c9e5ff;}.cls-4{clip-path:url(#clip-path);}.cls-12,.cls-5{fill:#fdcba3;}.cls-26,.cls-28,.cls-31,.cls-6,.cls-7{fill:#005596;}.cls-12,.cls-14,.cls-19,.cls-7,.cls-9{opacity:0.3;mix-blend-mode:multiply;}.cls-20,.cls-8,.cls-9{fill:#fbb480;}.cls-10{fill:#009ac7;}.cls-11{fill:#f9c19b;}.cls-13,.cls-14{fill:#432100;}.cls-15,.cls-17{fill:#fff;}.cls-15{opacity:0.2;}.cls-16{fill:#b32317;}.cls-18{fill:#ee3124;}.cls-20{opacity:0.4;}.cls-21{fill:#f9bf98;}.cls-22{fill:#f05133;}.cls-23{fill:#ffbe00;}.cls-24{fill:#98002e;}.cls-25{fill:#ed1849;}.cls-26{font-size:13px;}.cls-26,.cls-28,.cls-31{font-family:Ubuntu-Bold, Ubuntu;font-weight:700;}.cls-27{letter-spacing:-0.01em;}.cls-28{font-size:14px;}.cls-29{letter-spacing:-0.01em;}.cls-30{letter-spacing:0.02em;}.cls-31{font-size:24.98px;}.cls-32{letter-spacing:-0.04em;}.cls-33{letter-spacing:-0.03em;}</style><clipPath id="clip-path" transform="translate(-6.09 -35.59)"><rect class="cls-1" x="6.09" y="96.87" width="886.91" height="167.01"/></clipPath></defs><title>info</title><g class="cls-2"><g id="Слой_1" data-name="Слой 1"><rect class="cls-3" width="886.91" height="228.29" rx="58.37"/><g class="cls-4"><path class="cls-5" d="M344.92,230.17l13.61-3.4s6.65,10.51,6.19,17.32c-.36,5.21-4.93,26.14-4.93,26.14l-12.08.19s4-20.76,3.24-25.09S344.92,230.17,344.92,230.17Z" transform="translate(-6.09 -35.59)"/><path class="cls-6" d="M317.89,185.15a33.87,33.87,0,0,0,10.62,4c5.25.78,15.36,4,18.08,4.39s7.88,6.51,9.44,12.54S363.71,230,363.71,230L342,237.73l-4.81-12.44,3.28,45.09s-36.16,6.43-62.84-1.83l2.27-44.17-3.21,8.76-22.28-12.65s9.59-21.88,14.9-27.41,13.64-3.93,18.75-4.86a25.68,25.68,0,0,0,8.06-2.72A34.8,34.8,0,0,0,317.89,185.15Z" transform="translate(-6.09 -35.59)"/><path class="cls-7" d="M363.71,230S359.24,217,357,209.39c0,0,2.92,18.18-2.85,20.55s-9.51,2.72-12.23-.68-8.84-17.32-8.84-17.32-.68,42.81-1.7,50.62-17,10.16-35.33,6.12-15.29-11.21-15.29-19S285.82,213,285.82,213s-9.85,13.25-10.74,14.11-7.94-4.26-14.21-7.74c-3.24-1.8-4-3.27-4-4.27-1.51,3.2-2.48,5.43-2.48,5.43l22.28,12.65,3.21-8.76-2.27,44.17c26.68,8.26,62.84,1.83,62.84,1.83l-3.28-45.09L342,237.73Z" transform="translate(-6.09 -35.59)"/><path class="cls-7" d="M326.43,188.74h0a36.22,36.22,0,0,1-8.54-3.59,34.8,34.8,0,0,1-21.79.35,25.57,25.57,0,0,1-7.47,2.59,12.91,12.91,0,0,0,.42,1.65A36.77,36.77,0,0,0,295,203.91l10.57-8.62,8.68,8.91A34.53,34.53,0,0,0,326.43,188.74Z" transform="translate(-6.09 -35.59)"/><path class="cls-8" d="M317.42,175.94s-.19,10.7,1.75,14c0,0-11.86,9.13-25.29.57,0,0,4.67-8,3.11-14.38C297,176.14,308.93,181.33,317.42,175.94Z" transform="translate(-6.09 -35.59)"/><path class="cls-9" d="M305.84,185.91c5.07,0,9.42-2.33,11.65-5.7-.1-2.4-.07-4.27-.07-4.27-8.49,5.39-20.43.2-20.43.2a15,15,0,0,1-.18,6.86A15,15,0,0,0,305.84,185.91Z" transform="translate(-6.09 -35.59)"/><path class="cls-10" d="M317.88,185.15S315.24,194.63,307,194l10,9.46a33.8,33.8,0,0,0,8.87-15.2Z" transform="translate(-6.09 -35.59)"/><path class="cls-10" d="M296.18,185.15s2.65,9.48,10.85,8.89l-9.95,9.46a33.9,33.9,0,0,1-8.87-15.2Z" transform="translate(-6.09 -35.59)"/><path class="cls-11" d="M322.91,144.71s3.74-2.76,5.6,2.14c1.68,4.44.26,10.94-3.73,11.84S321,148.25,322.91,144.71Z" transform="translate(-6.09 -35.59)"/><path class="cls-8" d="M327.77,147.88s-.61-.32-1.23.7a8.35,8.35,0,0,0-1.27,4.46c.05,1.77.1,2.8.83,2.43a2.39,2.39,0,0,0,1.25-2.79,9.62,9.62,0,0,0-.91-1.75A3.54,3.54,0,0,1,327.77,147.88Z" transform="translate(-6.09 -35.59)"/><path class="cls-5" d="M277.94,150s1.8,9.16,1.93,11.51,5.35,14.61,8.65,18.53,9.82,6.77,17.24,5.52,15.67-10,17.58-17.43.73-19.07.73-19.07-2.66-14.28-7.32-20.07-10.43-10.34-18.65-9.22-18.24,7.28-20.66,14.79S277.94,150,277.94,150Z" transform="translate(-6.09 -35.59)"/><path class="cls-12" d="M323.34,168.11c1.91-7.43.73-19.07.73-19.07s-.56-3-1.62-6.82a2.1,2.1,0,0,0-.29,1.43,63.81,63.81,0,0,1,.44,22.78c-1.82,10.28-12,17.31-20.92,17.54s-14.89-6.47-14.93-6.51a22.2,22.2,0,0,0,1.77,2.56c3.29,3.92,9.82,6.77,17.24,5.52S321.43,175.53,323.34,168.11Z" transform="translate(-6.09 -35.59)"/><path class="cls-12" d="M316.75,129c-4.66-5.79-10.43-10.34-18.65-9.22s-18.24,7.28-20.66,14.79a18.68,18.68,0,0,0-.71,3.12l1.86,3.87s2.89-6.05,8.94-5.29,12.18.91,15.32-.41l-5.52-4s9.48,1.75,14.59.49,2.76,1.11,3,2.46-.18,4.2,3.69,5.82c1.89.79,2.59-.43,2.81-1.88C320.2,135.09,318.64,131.33,316.75,129Z" transform="translate(-6.09 -35.59)"/><path class="cls-13" d="M324.07,149s-.69-4.75-3.05-6.78c-3.36-2.9-4.14-.87-4.32-6.61a36.51,36.51,0,0,0-.84-6s-.89,1.19-7.2,2a47.38,47.38,0,0,1-12-.13l6.92,2.82s-4.82,1.87-8.42,1.55-7.44-1.16-10-.07-6.57,5.66-6.57,5.66-.88,7.3-.65,8.45,1.7,9.57,1.7,9.57a77.75,77.75,0,0,0-3.68-7.27c-1.63-2.62-3-9.77-2.37-14.48s-2.6-11.92-4.29-12.56a13.94,13.94,0,0,1-3.37-2.07s6.35-.54,10.29-3.7,16.85-8.49,24.21-9.34A10.76,10.76,0,0,1,311,115.06a5.77,5.77,0,0,0-3.21-5.77s3.76,1.2,5,3.36c0,0,3.13-1.71,5.24-.1,0,0-2.6-.61-3.32,1.35s5.14.87,7.44,3.63,3.92,7.63,4.68,13.68,1,14.28,1,14.28S324.64,141,324.07,149Z" transform="translate(-6.09 -35.59)"/><path class="cls-14" d="M321,142.26c2.36,2,3.05,6.78,3.05,6.78.57-8,3.75-3.55,3.75-3.55s-.21-8.22-1-14.28-2.37-10.91-4.68-13.68-8.16-1.67-7.44-3.63a2.53,2.53,0,0,1,2.78-1.42c-3-.42-3.82,1.41-3.44,2.58s2,.53,3.75,1.61,2,1.89,2,1.89,1.77,2.71,2.83,4.1c-1.76-1-6.16-1.56-6.16-1.56,4.26.66,8.11,7.11,8.24,7.88s.2,5.89-.79,8.22-4.38-.25-5-1.53-.62-6-1-6.94-2.6-2.52-2.6-2.52-3.32,1.35-10.26,3.51-16.41-.2-16.41-.2c2.15,2.2,8,4.18,8,4.18-4.51.26-10.46,0-13.11,1.81s-6.62,2.89-7.06,4.94-.24,10.3-.24,10.3l-1.29-4.13c-1.28-4.12.41-5.78-.18-10.42s-2.82-6.8-2.82-6.8h0a17.68,17.68,0,0,1,1.52,8.4c-.65,4.71.74,11.86,2.37,14.48a77.75,77.75,0,0,1,3.68,7.27s-1.48-8.43-1.7-9.57.65-8.45.65-8.45,4-4.57,6.57-5.66,6.41-.25,10,.07,8.42-1.55,8.42-1.55l-6.92-2.82a47.38,47.38,0,0,0,12,.13c6.31-.81,7.2-2,7.2-2a36.51,36.51,0,0,1,.84,6C316.88,141.39,317.66,139.36,321,142.26Z" transform="translate(-6.09 -35.59)"/><path class="cls-15" d="M307.45,116.31a7.08,7.08,0,0,0-6.82-3c-4.41.74-17.42,5.5-19.08,6.17s10.51-5.52,13.87-6.67S305.08,110.2,307.45,116.31Z" transform="translate(-6.09 -35.59)"/><path class="cls-13" d="M290.82,143.5c-1,1.24-4.77,2.68-6.2,2.92s-2.32,2.93-2.51,3.36,1.45-1.71,3.75-2.37C285.86,147.41,290.78,146.45,290.82,143.5Z" transform="translate(-6.09 -35.59)"/><path class="cls-13" d="M291.53,152.53a5.37,5.37,0,0,0-3.36-.1c-1.78.57-3.69,1.16-3.69,1.16s-.06.41,1.26.32,3-1.12,3.7-1,1.72.29,1.72.29a10.1,10.1,0,0,0-3,1c-.67.56-1.45.89-1.41,1.14s.69-.06,1.92-.78a10.9,10.9,0,0,1,3.82-1.28C293.41,153.15,293.49,152.85,291.53,152.53Z" transform="translate(-6.09 -35.59)"/><path class="cls-13" d="M304.77,141.15c1.35.85,5.38,1,6.81.73s3.15,2,3.47,2.35-1.93-1.14-4.31-1C310.74,143.22,305.77,143.92,304.77,141.15Z" transform="translate(-6.09 -35.59)"/><path class="cls-13" d="M307.06,149.92a5.32,5.32,0,0,1,3.14-1.2l3.86-.11s.19.36-1.08.71-3.2-.08-3.85.22-1.52.84-1.52.84a10.08,10.08,0,0,1,3.14,0c.82.31,1.66.36,1.7.61s-.68.18-2.07-.1a10.92,10.92,0,0,0-4,0C305.49,151.12,305.31,150.86,307.06,149.92Z" transform="translate(-6.09 -35.59)"/><path class="cls-8" d="M297.93,153.63a7.33,7.33,0,0,1,.26,3.85c-.51,1.66-2,.65-1.53,3.08s4.61,3.5,4.61,3.5-3.67.11-4.83-1.7-2.5-3.43-.23-4S297.43,155.29,297.93,153.63Z" transform="translate(-6.09 -35.59)"/><path class="cls-16" d="M305.27,172.15s-.83-3.18-1.58-3.56-3.67-.13-5.21.12-3,.17-3.35,2.14.49,4.87,1.7,5S306.68,176.13,305.27,172.15Z" transform="translate(-6.09 -35.59)"/><path class="cls-17" d="M295.13,170.85c.39-2,1.75-1.89,3.35-2.14s4.42-.52,5.21-.12a2.45,2.45,0,0,1,.74,1.09S298.23,172,295.13,170.85Z" transform="translate(-6.09 -35.59)"/><path class="cls-18" d="M305.09,174.22c-.07-.06-1.6-1.55-5.07-1.28-4,.33-4,2.36-4,2.37a1.24,1.24,0,0,0,.81.52C297.77,175.91,303.68,176.05,305.09,174.22Z" transform="translate(-6.09 -35.59)"/><path class="cls-5" d="M278.59,224.37l-16.82-13.89-15.91,25.19,15.93,11.59S275.26,233.79,278.59,224.37Z" transform="translate(-6.09 -35.59)"/><path class="cls-5" d="M272.8,189.25c.23-1.31-2-6.36-2.87-11.29s2.56-6.6,5.39-8.3a9.19,9.19,0,0,1,10.75.86c3.49,3,5.26,1.72,4.76,4.54s-2.4,8.88-2.42,10.22-5.79,5.81-6.43,7.78c-.24.73-9.8,32.94-11,39.51s-7.81,14.44-11.71,16.18-12.28-2.35-14-8,8.16-26.12,12.75-33S272.8,189.25,272.8,189.25Z" transform="translate(-6.09 -35.59)"/><path class="cls-5" d="M290.07,179.06s-5.68-.7-8.47-.85-3.56,1.33-3.44,2.54,1.61,2.1,3.45,2.1-1.31,3.52-1.31,3.52,1.25,6.88,3.65,4.69,6.28-4.44,6.78-6.35S292.16,179.31,290.07,179.06Z" transform="translate(-6.09 -35.59)"/><path class="cls-12" d="M290.73,184.71c.51-1.91,1.43-5.4-.66-5.65,0,0-5.68-.7-8.47-.85s-3.56,1.33-3.44,2.54,1.61,2.1,3.45,2.1a13.17,13.17,0,0,0,2.88,0s-3.6,0-4.07-1.59-.71-2.15,2.55-2.41,7,1.62,7.47,3.48-2.12,5.21-2.53,5.55C289.31,186.78,290.47,185.7,290.73,184.71Z" transform="translate(-6.09 -35.59)"/><path class="cls-5" d="M285.9,169.56s3.43-1.11,4.88-.49,1.78,3.35,1,5.44-.92,5.28-2.66,5.11-2.85-1.05-2.21-3.33,1-3.77-.07-4.29S282.35,171.11,285.9,169.56Z" transform="translate(-6.09 -35.59)"/><g class="cls-19"><path class="cls-5" d="M289.12,179.62c1.74.17,1.88-3,2.66-5.11s.44-4.82-1-5.44a14.74,14.74,0,0,0-4,.17c6.63-.78,5.13,4.78,3.93,7.51s-1.79,2.39-3,1.43.33-3.55.73-4.7.09-1.64-.48-1.42a2.73,2.73,0,0,1-1.47-.17l.29.11c1.06.52.7,2,.07,4.29S287.38,179.45,289.12,179.62Z" transform="translate(-6.09 -35.59)"/></g><path class="cls-5" d="M281.36,168.89s3.21-1.46,4.72-1,2.31,3.15,1.87,5.32-.05,5.35-1.8,5.37-3-.74-2.72-3.09.37-3.87-.77-4.27S278.1,170.81,281.36,168.89Z" transform="translate(-6.09 -35.59)"/><g class="cls-19"><path class="cls-5" d="M286.15,178.59c1.75,0,1.37-3.22,1.8-5.37s-.34-4.85-1.87-5.32a14.4,14.4,0,0,0-3.9.58c6.43-1.47,5.84,4.23,5.11,7.08s-1.38,2.57-2.7,1.73-.25-3.57,0-4.76-.18-1.64-.72-1.36a2.65,2.65,0,0,1-1.45,0l.28.08c1.14.4,1,1.94.77,4.27S284.4,178.6,286.15,178.59Z" transform="translate(-6.09 -35.59)"/></g><path class="cls-5" d="M277.15,168.81s2.94-1.8,4.53-1.49,2.78,2.9,2.7,5.11.83,5.35-.9,5.54-3.06-.43-3.18-2.78-.26-3.91-1.46-4.19S274.27,171.07,277.15,168.81Z" transform="translate(-6.09 -35.59)"/><g class="cls-19"><path class="cls-5" d="M283.48,178c1.73-.19.83-3.34.9-5.54s-1.12-4.81-2.7-5.11c-.63-.13-3,.69-3.75,1,6.09-2.15,6.45,3.61,6.19,6.53s-.94,2.7-2.38,2-.84-3.54-.83-4.75-.43-1.62-.92-1.28a2.73,2.73,0,0,1-1.45.14l.3,0c1.2.28,1.33,1.83,1.46,4.19S281.76,178.17,283.48,178Z" transform="translate(-6.09 -35.59)"/></g><path class="cls-5" d="M273.49,170.11s2.67-2.06,4.28-1.89,3.15,2.67,3.37,4.87,1.55,5.28-.13,5.63-3.1-.16-3.54-2.5-.8-3.88-2-4.06S270.94,172.63,273.49,170.11Z" transform="translate(-6.09 -35.59)"/><g class="cls-19"><path class="cls-5" d="M281,178.72c1.68-.35.36-3.41.13-5.63s-1.76-4.7-3.37-4.87a4.6,4.6,0,0,0-2.2.59c4.27-.89,5.5,3.78,5.64,6.72s-.56,2.79-2.08,2.22-1.31-3.47-1.47-4.67-.65-1.59-1.09-1.21a2.5,2.5,0,0,1-1.41.27,1.46,1.46,0,0,1,.3,0c1.21.18,1.56,1.71,2,4.06S279.32,179.07,281,178.72Z" transform="translate(-6.09 -35.59)"/></g><path class="cls-12" d="M280.69,196S269.38,229.5,263,237.66s-9,7.37-13.83,3.78S255,213,255,213h0c-4.86,8.9-11.11,23.22-9.68,27.79,1.76,5.64,10.14,9.73,14,8s10.56-9.62,11.71-16.18c.92-5.24,7.19-26.81,9.81-35.68Z" transform="translate(-6.09 -35.59)"/><path class="cls-17" d="M269,171.14s-6.47-4.31-10.5-2.92-1.67,3.62,1.72,3.81A45,45,0,0,0,269,171.14Z" transform="translate(-6.09 -35.59)"/><path class="cls-17" d="M266.88,178.94s-4.84,1.24-5.47,4,1.53,2.64,2.85,1A24.18,24.18,0,0,0,266.88,178.94Z" transform="translate(-6.09 -35.59)"/><path class="cls-17" d="M259.61,179.08s-4.63-.4-6,1.9.58,2.88,2.24,1.78A22.57,22.57,0,0,0,259.61,179.08Z" transform="translate(-6.09 -35.59)"/><path class="cls-5" d="M488.59,192.63c-.33,1-4.55,19.14-4.55,19.14s-28-5.59-29.58-8.51-2.87-13.23,3.62-13.88S488.59,192.63,488.59,192.63Z" transform="translate(-6.09 -35.59)"/><path class="cls-20" d="M472.15,209.16c6.32,1.5,11.89,2.61,11.89,2.61s4.22-18.17,4.55-19.14c0,0-7.57-1.23-15.36-2.19,1.15-3.5,2.17-7.14,3.31-10.29,1.29-3.57,3.13-8.24,5-12.74h0s-9.38,19.21-11,21.81-.35,3.11,1.86,3.58,5.52,7.91-.28,16.36Z" transform="translate(-6.09 -35.59)"/><polygon class="cls-5" points="549.74 193.68 565.2 188.51 577.59 230.06 563.31 232.65 549.74 193.68"/><path class="cls-6" d="M502,188.22A25.54,25.54,0,0,0,510,185.5a34.8,34.8,0,0,0,21.79-.35,33.87,33.87,0,0,0,10.62,4c5.25.78,15.36,4,18.08,4.39s7.89,6.51,9.44,12.54S577.65,230,577.65,230l-21.73,7.71-4.81-12.44,3.29,45.09s-36.16,6.43-62.84-1.83l-.05-50.29-17.21-5.2,4.36-26.26S496.88,189.15,502,188.22Z" transform="translate(-6.09 -35.59)"/><path class="cls-7" d="M540.37,188.74h0a36.45,36.45,0,0,1-8.54-3.59,34.8,34.8,0,0,1-21.79.35,25.57,25.57,0,0,1-7.47,2.59,12.91,12.91,0,0,0,.42,1.65,37,37,0,0,0,5.91,14.17l10.57-8.62,8.68,8.91A34.53,34.53,0,0,0,540.37,188.74Z" transform="translate(-6.09 -35.59)"/><g class="cls-19"><path class="cls-6" d="M577.65,230s-1.28-3.74-2.81-8.38c-.41,6.63-5,11.15-13.56,10.58s-13-18.17-13-18.17,1.3,49-8.11,52.9-43.81-1.63-45.76-7.79,2.59-52.9,2.59-52.9l-3.89,9.08s-9.09-3.57-14-4.54c-3.61-.72-3.53-5.2-3.25-7.46l-1.62,9.72,17.21,5.2.05,50.29c26.68,8.26,62.84,1.83,62.84,1.83l-3.29-45.09,4.81,12.44Z" transform="translate(-6.09 -35.59)"/><polygon class="cls-6" points="470.05 166.43 470.05 166.43 470.05 166.44 470.05 166.43"/></g><path class="cls-8" d="M531.37,175.94s-.2,10.7,1.75,14c0,0-11.87,9.13-25.3.57,0,0,4.67-8,3.12-14.38C510.94,176.14,522.87,181.33,531.37,175.94Z" transform="translate(-6.09 -35.59)"/><path class="cls-9" d="M519.78,185.91c5.07,0,9.43-2.33,11.65-5.7-.1-2.4-.06-4.27-.06-4.27-8.5,5.39-20.43.2-20.43.2a15.15,15.15,0,0,1-.19,6.86A15,15,0,0,0,519.78,185.91Z" transform="translate(-6.09 -35.59)"/><path class="cls-10" d="M531.83,185.15S529.18,194.63,521,194l9.95,9.46a33.9,33.9,0,0,0,8.87-15.2Z" transform="translate(-6.09 -35.59)"/><path class="cls-10" d="M510.12,185.15s2.65,9.48,10.86,8.89l-10,9.46a33.9,33.9,0,0,1-8.87-15.2Z" transform="translate(-6.09 -35.59)"/><path class="cls-11" d="M543.32,147.42s4.15-2.1,5.16,3c.93,4.65-1.55,10.83-5.64,11.06S540.89,150.6,543.32,147.42Z" transform="translate(-6.09 -35.59)"/><path class="cls-8" d="M547.59,151.36s-.55-.43-1.33.48a8.4,8.4,0,0,0-2,4.18c-.24,1.76-.37,2.79.42,2.54a2.39,2.39,0,0,0,1.7-2.54,10.87,10.87,0,0,0-.61-1.88A3.5,3.5,0,0,1,547.59,151.36Z" transform="translate(-6.09 -35.59)"/><path class="cls-5" d="M498.09,145.14s.26,9.34,0,11.67,2.86,15.31,5.45,19.72,8.56,8.3,16.08,8.3,17.12-7.26,20.24-14.27,3.89-18.67,3.89-18.67-.26-14.53-3.89-21-8.57-11.93-16.86-12.19-19.2,4.15-22.83,11.16S498.09,145.14,498.09,145.14Z" transform="translate(-6.09 -35.59)"/><path class="cls-12" d="M539.86,170.56c3.11-7,3.89-18.67,3.89-18.67s-.06-3.07-.47-7a2.09,2.09,0,0,0-.52,1.36,64,64,0,0,1-3.35,22.54c-3.51,9.83-14.69,15.08-23.54,13.81s-13.61-8.85-13.64-8.89a21.22,21.22,0,0,0,1.31,2.82c2.6,4.41,8.56,8.3,16.08,8.3S536.74,177.57,539.86,170.56Z" transform="translate(-6.09 -35.59)"/><path class="cls-12" d="M539.86,130.87c-3.64-6.48-8.57-11.93-16.86-12.19s-19.2,4.15-22.83,11.16a19.24,19.24,0,0,0-1.22,3l1.19,4.12s3.86-5.48,9.7-3.73,11.86,2.92,15.17,2.14l-4.77-4.86s9,3.3,14.3,2.91,2.53,1.56,2.53,2.92-.88,4.12,2.67,6.36c1.74,1.09,2.63,0,3.08-1.4C542.25,137.48,541.34,133.52,539.86,130.87Z" transform="translate(-6.09 -35.59)"/><path class="cls-13" d="M543.75,151.89s.11-4.8-1.88-7.2c-2.84-3.42-3.94-1.55-3.17-7.24a37,37,0,0,0,.16-6s-1.08,1-7.43.77a47.05,47.05,0,0,1-11.81-2.12L526,134s-5.05,1-8.56.13-7.13-2.38-9.86-1.73-7.42,4.49-7.42,4.49-2.07,7.06-2.05,8.22.1,9.73.1,9.73a76.35,76.35,0,0,0-2.43-7.78c-1.17-2.86-1.36-10.14.07-14.68s-.58-12.19-2.14-13.1a13.48,13.48,0,0,1-3-2.59s6.35.52,10.76-2,18-5.57,25.42-5.18a10.76,10.76,0,0,1,9.6,6.61,5.76,5.76,0,0,0-2.21-6.22s3.51,1.81,4.42,4.14c0,0,3.36-1.16,5.18.78,0,0-2.46-1-3.5.78s4.92,1.7,6.74,4.82,2.59,8.17,2.33,14.27S548,149,548,149,545.63,144.08,543.75,151.89Z" transform="translate(-6.09 -35.59)"/><path class="cls-14" d="M541.87,144.69c2,2.4,1.88,7.2,1.88,7.2C545.63,144.08,548,149,548,149s1.17-8.14,1.42-14.23-.51-11.16-2.33-14.27-7.78-3-6.74-4.82a2.51,2.51,0,0,1,3-.94c-2.91-.92-4,.76-3.83,2s1.9.86,3.44,2.2,1.69,2.21,1.69,2.21,1.31,3,2.12,4.51c-1.58-1.23-5.82-2.57-5.82-2.57,4.09,1.37,6.81,8.37,6.81,9.15s-.77,5.83-2.14,8-4.28-1-4.67-2.33.39-6,.2-7-2.14-2.91-2.14-2.91-3.5.78-10.7,1.75-16.15-2.92-16.15-2.92c1.75,2.53,7.2,5.45,7.2,5.45-4.48-.5-10.31-1.75-13.23-.39s-7,1.75-7.78,3.69-1.95,10.12-1.95,10.12l-.58-4.28c-.58-4.28,1.36-5.64,1.56-10.31a11.91,11.91,0,0,0-1.66-7.18h0a17.74,17.74,0,0,1,.1,8.53c-1.43,4.54-1.24,11.82-.07,14.68a76.35,76.35,0,0,1,2.43,7.78s-.07-8.56-.1-9.73,2.05-8.22,2.05-8.22,4.7-3.84,7.42-4.49,6.36.82,9.86,1.73S526,134,526,134l-6.36-3.93a47.05,47.05,0,0,0,11.81,2.12c6.35.26,7.43-.77,7.43-.77a37,37,0,0,1-.16,6C537.93,143.14,539,141.27,541.87,144.69Z" transform="translate(-6.09 -35.59)"/><path class="cls-15" d="M532.79,116.85a7.06,7.06,0,0,0-6.22-4.09c-4.48,0-18.09,2.53-19.85,2.92S518,112,521.51,111.4,531.47,110.43,532.79,116.85Z" transform="translate(-6.09 -35.59)"/><path class="cls-13" d="M511.88,140.9c-1.19,1-5.15,1.84-6.6,1.84s-2.77,2.51-3,2.9,1.71-1.45,4.09-1.71C506.34,143.93,511.35,143.8,511.88,140.9Z" transform="translate(-6.09 -35.59)"/><path class="cls-13" d="M511.08,149.92a5.35,5.35,0,0,0-3.3-.66c-1.85.27-3.83.53-3.83.53s-.12.39,1.19.53,3.13-.61,3.83-.42a17.23,17.23,0,0,1,1.64.56,10.24,10.24,0,0,0-3.1.51c-.76.44-1.58.63-1.58.89s.7.06,2-.45a11.16,11.16,0,0,1,4-.63C512.82,150.84,513,150.56,511.08,149.92Z" transform="translate(-6.09 -35.59)"/><path class="cls-13" d="M526,140.9c1.2,1,5.15,1.84,6.6,1.84s2.77,2.51,3,2.9-1.71-1.45-4.09-1.71C531.56,143.93,526.55,143.8,526,140.9Z" transform="translate(-6.09 -35.59)"/><path class="cls-13" d="M526.82,149.92a5.35,5.35,0,0,1,3.3-.66c1.84.27,3.83.53,3.83.53s.12.39-1.19.53-3.14-.61-3.83-.42a17.23,17.23,0,0,0-1.64.56,10.29,10.29,0,0,1,3.1.51c.76.44,1.57.63,1.57.89s-.69.06-2-.45a11.16,11.16,0,0,0-4-.63C525.07,150.84,524.94,150.56,526.82,149.92Z" transform="translate(-6.09 -35.59)"/><path class="cls-8" d="M517.21,152.06a7.4,7.4,0,0,1-.39,3.85c-.78,1.55-2.1.31-2,2.78s4,4.22,4,4.22-3.64-.51-4.48-2.48-1.89-3.8.44-4S516.43,153.62,517.21,152.06Z" transform="translate(-6.09 -35.59)"/><path class="cls-16" d="M525.8,170.94s-.78-3-1.84-3.45-5.08-.53-7.11-.5-3.59-.18-4.68,1.24-1.2,4.07.3,4.42S527.65,175.56,525.8,170.94Z" transform="translate(-6.09 -35.59)"/><path class="cls-17" d="M512.17,168.23c1.09-1.42,2.64-1.22,4.68-1.24s6,.08,7.11.5a2.29,2.29,0,0,1,.91,1S515.56,169.53,512.17,168.23Z" transform="translate(-6.09 -35.59)"/><path class="cls-18" d="M525.11,173c-.1-.08-2.29-1.9-7.46-2.31s-6,1.33-6,1.33a1.26,1.26,0,0,0,.83.64C513.64,172.93,522.34,174.56,525.11,173Z" transform="translate(-6.09 -35.59)"/><path class="cls-21" d="M485.37,133s.5-6.75,2.1-8.2,4.18-3.62,4.18-3.62,1.74-.49,1.1,1a24,24,0,0,1-3.4,4.35s-1.07,5.36-1.29,5.92S485.37,133,485.37,133Z" transform="translate(-6.09 -35.59)"/><path class="cls-5" d="M483.81,146s1-12.47,2.22-15.64,1.48-3,6.17-5.1c4.22-1.86,8.36-3.11,9.24-1.85s-.48,1.5-2.32,1.89a15,15,0,0,0-6.82,3.47,4,4,0,0,0-1.3,1.82s3.44-1.58,6-2.41,3-.93,4.87-.57,2.27.51,2.22,1.58-1.78.59-3.67.64a13.43,13.43,0,0,0-7,3.2,3.13,3.13,0,0,0-.92,1.81,12.92,12.92,0,0,1,2.8-2.29c1.24-.62,2.45-.56,5.16-.83s3.85.09,2.85,1.26-4.31,1.09-5.67,1.43-2.39,2.18-3.81,6.42-2.06,9.46-4.43,11.23-9.51,18.67-12.91,28.06-5.68,23.16-13.69,24.53-12.77-3.3-11.45-11.18,12.3-20.82,17.9-28.1S483.81,146,483.81,146Z" transform="translate(-6.09 -35.59)"/><g class="cls-19"><path class="cls-5" d="M498.07,134c-1,.17-2,.08-3.13,2.35s-2,7.77-2,7.77h0c.29-1.09.59-2.18.93-3.21,1.42-4.24,2.45-6.08,3.81-6.42.77-.19,2.16-.26,3.41-.49A16.18,16.18,0,0,0,498.07,134Z" transform="translate(-6.09 -35.59)"/><path class="cls-5" d="M499.75,129.94Z" transform="translate(-6.09 -35.59)"/><path class="cls-5" d="M497.05,132.08a5.7,5.7,0,0,0-1.7.5,12.92,12.92,0,0,0-2.8,2.29,3.13,3.13,0,0,1,.92-1.81,14.13,14.13,0,0,1,6.19-3.11c-.67.12-4.46.75-5.77,1.74s-1,.87-1.56,2.08a2.79,2.79,0,0,0-.26,1.92s1.39-1.22,2.17-1.74S496.5,132.32,497.05,132.08Z" transform="translate(-6.09 -35.59)"/><path class="cls-5" d="M492.33,130.56c1-.62,5.57-2.61,5.57-2.61h0l-.86.26c-2.6.83-6,2.41-6,2.41a4,4,0,0,1,1.3-1.82,15,15,0,0,1,6.82-3.47c.6-.13,1.14-.24,1.58-.38,0,0-4.2.21-5.5,1.08s-3.65,2.26-4.09,2.69A6.7,6.7,0,0,0,490,130.9C490,131.16,490.84,131.47,492.33,130.56Z" transform="translate(-6.09 -35.59)"/></g><polygon class="cls-22" points="547.03 92.79 552.79 76.98 559.03 81.63 567.49 70.79 559.56 86.99 553.78 82.97 547.03 92.79"/><polygon class="cls-22" points="554.87 104.81 566.66 89.49 571.88 96.75 584.89 87.81 570.6 102.8 565.66 96.39 554.87 104.81"/><polygon class="cls-22" points="545.22 115.52 557.28 110.83 558.01 116.8 572.67 115.38 556.49 121.87 553.6 115.44 545.22 115.52"/><polygon class="cls-5" points="679.84 178.78 696.07 187.22 679.19 230.71 662.97 222.92 679.84 178.78"/><path class="cls-6" d="M743.78,185.15a33.87,33.87,0,0,0,10.62,4c5.25.78,15.36,4,18.08,4.39s7.88,6.51,9.44,12.54S789.6,230,789.6,230l-21.73,7.71-4.81-12.44,3.28,45.09s-36.16,6.43-62.84-1.83l2.27-44.17-3.21,8.76-22.28-12.65s9.59-21.88,14.9-27.41,13.64-3.93,18.75-4.86A25.68,25.68,0,0,0,722,185.5,34.8,34.8,0,0,0,743.78,185.15Z" transform="translate(-6.09 -35.59)"/><path class="cls-7" d="M789.6,230s-4.47-13.07-6.74-20.63c0,0,2.92,18.18-2.85,20.55s-9.52,2.72-12.23-.68-8.84-17.32-8.84-17.32-.68,42.81-1.7,50.62-17,10.16-35.34,6.12-15.28-11.21-15.28-19S711.71,213,711.71,213s-9.85,13.25-10.74,14.11-8-4.26-14.21-7.74c-3.24-1.8-4-3.27-4-4.27-1.5,3.2-2.47,5.43-2.47,5.43l22.28,12.65,3.21-8.76-2.27,44.17c26.68,8.26,62.84,1.83,62.84,1.83l-3.28-45.09,4.81,12.44Z" transform="translate(-6.09 -35.59)"/><path class="cls-7" d="M752.32,188.74h0a36.22,36.22,0,0,1-8.54-3.59,34.8,34.8,0,0,1-21.79.35,25.57,25.57,0,0,1-7.47,2.59,12.91,12.91,0,0,0,.42,1.65,36.77,36.77,0,0,0,5.91,14.17l10.57-8.62,8.68,8.91A34.53,34.53,0,0,0,752.32,188.74Z" transform="translate(-6.09 -35.59)"/><path class="cls-8" d="M743.31,175.94s-.19,10.7,1.75,14c0,0-11.86,9.13-25.29.57,0,0,4.67-8,3.11-14.38C722.88,176.14,734.82,181.33,743.31,175.94Z" transform="translate(-6.09 -35.59)"/><path class="cls-9" d="M731.73,185.91c5.07,0,9.42-2.33,11.65-5.7-.1-2.4-.07-4.27-.07-4.27-8.49,5.39-20.43.2-20.43.2a15.14,15.14,0,0,1-.18,6.86A15,15,0,0,0,731.73,185.91Z" transform="translate(-6.09 -35.59)"/><path class="cls-10" d="M743.77,185.15s-2.65,9.48-10.85,8.89l10,9.46a33.8,33.8,0,0,0,8.87-15.2Z" transform="translate(-6.09 -35.59)"/><path class="cls-10" d="M722.07,185.15s2.65,9.48,10.85,8.89L723,203.5a33.9,33.9,0,0,1-8.87-15.2Z" transform="translate(-6.09 -35.59)"/><path class="cls-11" d="M755.27,147.42s4.14-2.1,5.16,3c.92,4.65-1.56,10.83-5.64,11.06S752.83,150.6,755.27,147.42Z" transform="translate(-6.09 -35.59)"/><path class="cls-8" d="M759.53,151.36s-.54-.43-1.33.48a8.39,8.39,0,0,0-2,4.18c-.25,1.76-.37,2.79.42,2.54a2.39,2.39,0,0,0,1.69-2.54,10.41,10.41,0,0,0-.6-1.88A3.49,3.49,0,0,1,759.53,151.36Z" transform="translate(-6.09 -35.59)"/><path class="cls-5" d="M710,145.14s.26,9.34,0,11.67,2.85,15.31,5.45,19.72,8.56,8.3,16.08,8.3,17.12-7.26,20.23-14.27,3.89-18.67,3.89-18.67-.25-14.53-3.89-21-8.56-11.93-16.86-12.19-19.19,4.15-22.82,11.16S710,145.14,710,145.14Z" transform="translate(-6.09 -35.59)"/><path class="cls-12" d="M751.8,170.56c3.12-7,3.89-18.67,3.89-18.67s-.05-3.07-.46-7a2.15,2.15,0,0,0-.53,1.36,63.47,63.47,0,0,1-3.35,22.54c-3.5,9.83-14.68,15.08-23.54,13.81s-13.61-8.85-13.63-8.89a21.22,21.22,0,0,0,1.31,2.82c2.6,4.41,8.56,8.3,16.08,8.3S748.69,177.57,751.8,170.56Z" transform="translate(-6.09 -35.59)"/><path class="cls-12" d="M751.8,130.87c-3.63-6.48-8.56-11.93-16.86-12.19s-19.19,4.15-22.82,11.16a18.29,18.29,0,0,0-1.22,3l1.18,4.12s3.87-5.48,9.7-3.73,11.87,2.92,15.18,2.14l-4.78-4.86s9.06,3.3,14.31,2.91,2.53,1.56,2.53,2.92-.88,4.12,2.66,6.36c1.74,1.09,2.63,0,3.09-1.4C754.2,137.48,753.28,133.52,751.8,130.87Z" transform="translate(-6.09 -35.59)"/><path class="cls-13" d="M755.69,151.89s.12-4.8-1.88-7.2c-2.84-3.42-3.94-1.55-3.16-7.24a37,37,0,0,0,.16-6s-1.08,1-7.43.77a46.93,46.93,0,0,1-11.81-2.12l6.36,3.93s-5.06,1-8.56.13-7.14-2.38-9.86-1.73-7.43,4.49-7.43,4.49-2.07,7.06-2,8.22.1,9.73.1,9.73a79.19,79.19,0,0,0-2.43-7.78c-1.17-2.86-1.36-10.14.07-14.68s-.59-12.19-2.14-13.1a13.65,13.65,0,0,1-3-2.59s6.36.52,10.77-2,18-5.57,25.42-5.18a10.76,10.76,0,0,1,9.6,6.61,5.78,5.78,0,0,0-2.21-6.22s3.51,1.81,4.41,4.14c0,0,3.37-1.16,5.19.78,0,0-2.47-1-3.5.78s4.92,1.7,6.74,4.82,2.59,8.17,2.33,14.27S760,149,760,149,757.58,144.08,755.69,151.89Z" transform="translate(-6.09 -35.59)"/><path class="cls-14" d="M753.81,144.69c2,2.4,1.88,7.2,1.88,7.2C757.58,144.08,760,149,760,149s1.17-8.14,1.43-14.23-.52-11.16-2.33-14.27-7.78-3-6.74-4.82a2.51,2.51,0,0,1,3-.94c-2.91-.92-4,.76-3.83,2s1.9.85,3.44,2.2,1.69,2.21,1.69,2.21,1.3,3,2.11,4.51c-1.57-1.23-5.81-2.57-5.81-2.57,4.08,1.37,6.81,8.37,6.81,9.15s-.78,5.83-2.14,8-4.28-1-4.67-2.33.39-6,.19-7-2.13-2.91-2.13-2.91-3.51.78-10.7,1.75-16.15-2.92-16.15-2.92c1.75,2.53,7.19,5.45,7.19,5.45-4.48-.5-10.3-1.75-13.22-.39s-7,1.75-7.78,3.69-1.95,10.12-1.95,10.12l-.58-4.28c-.59-4.28,1.36-5.64,1.55-10.31s-1.65-7.18-1.65-7.18h0a17.62,17.62,0,0,1,.11,8.53c-1.43,4.54-1.24,11.82-.07,14.68a79.19,79.19,0,0,1,2.43,7.78s-.07-8.56-.1-9.73,2-8.22,2-8.22,4.71-3.84,7.43-4.49,6.36.82,9.86,1.73,8.56-.13,8.56-.13l-6.36-3.93a46.93,46.93,0,0,0,11.81,2.12c6.35.26,7.43-.77,7.43-.77a37,37,0,0,1-.16,6C749.87,143.14,751,141.27,753.81,144.69Z" transform="translate(-6.09 -35.59)"/><path class="cls-15" d="M744.74,116.85a7.06,7.06,0,0,0-6.23-4.09c-4.47,0-18.09,2.53-19.84,2.92S730,112,733.46,111.4,743.41,110.43,744.74,116.85Z" transform="translate(-6.09 -35.59)"/><path class="cls-13" d="M726.65,145.42c-1.58-.09-4.95-2.31-6-3.33s-3.72-.17-4.19-.08,2.24.18,4.11,1.66C720.58,143.67,724.24,147.11,726.65,145.42Z" transform="translate(-6.09 -35.59)"/><path class="cls-13" d="M723,149.92a5.32,5.32,0,0,0-3.3-.66c-1.84.27-3.82.53-3.82.53s-.13.39,1.19.53,3.13-.61,3.82-.42a16.79,16.79,0,0,1,1.65.56,10.24,10.24,0,0,0-3.1.51c-.76.44-1.58.63-1.58.89s.69.06,2-.45a11.19,11.19,0,0,1,4-.63C724.77,150.84,724.91,150.56,723,149.92Z" transform="translate(-6.09 -35.59)"/><path class="cls-13" d="M736.36,145.11c1.58.14,5.24-1.56,6.41-2.42s3.71.38,4.16.54-2.25-.15-4.31,1C742.62,144.27,738.5,147.14,736.36,145.11Z" transform="translate(-6.09 -35.59)"/><path class="cls-13" d="M738.77,149.92a5.32,5.32,0,0,1,3.3-.66c1.84.27,3.82.53,3.82.53s.13.39-1.19.53-3.13-.61-3.82-.42a16.79,16.79,0,0,0-1.65.56,10.24,10.24,0,0,1,3.1.51c.76.44,1.58.63,1.58.89s-.69.06-2-.45a11.19,11.19,0,0,0-4-.63C737,150.84,736.89,150.56,738.77,149.92Z" transform="translate(-6.09 -35.59)"/><path class="cls-8" d="M729.16,152.06a7.4,7.4,0,0,1-.39,3.85c-.78,1.55-2.1.31-2,2.78s4,4.22,4,4.22-3.63-.51-4.47-2.48-1.9-3.8.44-4S728.38,153.62,729.16,152.06Z" transform="translate(-6.09 -35.59)"/><path class="cls-16" d="M735.19,169.22a6.66,6.66,0,0,0-5.18-1.59c-2.79.55-5.25,3.63-5.06,4.94s1.86.93,3.91,0,3.35-2.42,5-1.12S737.53,171,735.19,169.22Z" transform="translate(-6.09 -35.59)"/><path class="cls-5" d="M769.55,237.11c.34.61.54.9.08,1.63-1.27,2-34.6-17.16-38.86-19.05s-3.52-6.12-3.57-7.53-1.19-3.31-3-5.47-3.14-1.32-2.63.47a16.75,16.75,0,0,1,.6,4.89c-.06,1-3.09-1.12-4.58-1.92a4.52,4.52,0,0,1-2.34-4c.22-1.26-1.11-1.41-2.57-.53s-1,.72-1.85,2.55-.63,3.19-1.67,4.11-1,6,2,9.59c8.55,10.11,12.12,4.59,18.77,9.95,3.86,3.1,30.08,20.73,35.92,23,7.14,2.75,17.81,8.23,23.36-3.74,2.05-4.39-1.13-8.6-1.65-20.33Z" transform="translate(-6.09 -35.59)"/><g class="cls-19"><path class="cls-5" d="M720.5,212.51c.63.35,2.86,1.21,3,.24s-1.51-4.08-1.51-4.08h0a15.62,15.62,0,0,1,.26,3.38c-.05.8-2.09-.46-3.65-1.38A12.59,12.59,0,0,0,720.5,212.51Z" transform="translate(-6.09 -35.59)"/><path class="cls-5" d="M788,253.42c-8,7.87-17.23,1.62-25.45-2.7S732,230.81,729,228.43s-5.63-1.62-10.61-2.59-9.37-10.51-9.47-11.64,1-1.37,1.4-1.64.1-.93.21-2.17.53-1,.83-1.36.23-1,.3-1.74a3.65,3.65,0,0,1,1.08-1.7c-1.46.89-1,.72-1.85,2.55s-.63,3.19-1.67,4.11-1,6,2,9.59c8.55,10.11,12.12,4.59,18.77,9.95,3.86,3.1,30.08,20.73,35.92,23C772.54,257.33,782.17,262.2,788,253.42Z" transform="translate(-6.09 -35.59)"/><path class="cls-5" d="M787.64,230.71l-18.09,6.4c.26.48.43.76.28,1.21h0s11.93-5.8,18-4.71h0C787.75,232.7,787.68,231.74,787.64,230.71Z" transform="translate(-6.09 -35.59)"/></g><polygon class="cls-23" points="687.11 133.61 697.71 138.31 694.55 142.56 701.79 148.98 690.95 142.74 693.68 138.78 687.11 133.61"/><polygon class="cls-23" points="674.58 147.94 683.48 147.99 682.57 151.93 689.64 154.22 680.09 153.16 680.79 149.55 674.58 147.94"/><path class="cls-5" d="M80.34,192.63c-.32,1-4.54,19.14-4.54,19.14s-28-5.59-29.59-8.51S43.34,190,49.83,189.38,80.34,192.63,80.34,192.63Z" transform="translate(-6.09 -35.59)"/><path class="cls-20" d="M63.91,209.16c6.31,1.5,11.89,2.61,11.89,2.61S80,193.6,80.34,192.63c0,0-7.57-1.23-15.35-2.19,1.14-3.5,2.16-7.14,3.3-10.29,1.3-3.57,3.14-8.24,5-12.74h0s-9.38,19.21-11,21.81-.35,3.11,1.85,3.58,5.53,7.91-.27,16.36Z" transform="translate(-6.09 -35.59)"/><polygon class="cls-5" points="141.5 193.68 156.95 188.51 169.34 230.06 155.06 232.65 141.5 193.68"/><path class="cls-6" d="M93.74,188.22a25.68,25.68,0,0,0,8.06-2.72,34.79,34.79,0,0,0,21.79-.35,33.87,33.87,0,0,0,10.62,4c5.25.78,15.35,4,18.08,4.39s7.88,6.51,9.44,12.54S169.41,230,169.41,230l-21.73,7.71-4.81-12.44,3.28,45.09s-36.16,6.43-62.84-1.83l0-50.29-17.2-5.2,4.35-26.26S88.63,189.15,93.74,188.22Z" transform="translate(-6.09 -35.59)"/><path class="cls-7" d="M132.13,188.74h0a36.22,36.22,0,0,1-8.54-3.59,34.79,34.79,0,0,1-21.79.35,25.57,25.57,0,0,1-7.48,2.59,15,15,0,0,0,.43,1.65,36.77,36.77,0,0,0,5.91,14.17l10.57-8.62,8.68,8.91A34.61,34.61,0,0,0,132.13,188.74Z" transform="translate(-6.09 -35.59)"/><g class="cls-19"><path class="cls-6" d="M169.41,230s-1.28-3.74-2.82-8.38c-.4,6.63-5,11.15-13.55,10.58s-13-18.17-13-18.17,1.3,49-8.12,52.9-43.81-1.63-45.76-7.79,2.6-52.9,2.6-52.9l-3.89,9.08s-9.09-3.57-14-4.54c-3.61-.72-3.54-5.2-3.26-7.46l-1.61,9.72,17.2,5.2,0,50.29c26.68,8.26,62.84,1.83,62.84,1.83l-3.28-45.09,4.81,12.44Z" transform="translate(-6.09 -35.59)"/><polygon class="cls-6" points="61.8 166.43 61.8 166.43 61.8 166.44 61.8 166.43"/></g><path class="cls-8" d="M123.12,175.94s-.2,10.7,1.75,14c0,0-11.87,9.13-25.29.57,0,0,4.67-8,3.11-14.38C102.69,176.14,114.63,181.33,123.12,175.94Z" transform="translate(-6.09 -35.59)"/><path class="cls-9" d="M111.54,185.91c5.07,0,9.42-2.33,11.65-5.7-.1-2.4-.07-4.27-.07-4.27-8.49,5.39-20.43.2-20.43.2a15.14,15.14,0,0,1-.18,6.86A15,15,0,0,0,111.54,185.91Z" transform="translate(-6.09 -35.59)"/><path class="cls-10" d="M123.58,185.15s-2.65,9.48-10.85,8.89l10,9.46a33.9,33.9,0,0,0,8.87-15.2Z" transform="translate(-6.09 -35.59)"/><path class="cls-10" d="M101.88,185.15s2.65,9.48,10.85,8.89l-10,9.46a33.9,33.9,0,0,1-8.87-15.2Z" transform="translate(-6.09 -35.59)"/><path class="cls-11" d="M135.08,147.42s4.14-2.1,5.16,3c.92,4.65-1.56,10.83-5.64,11.06S132.64,150.6,135.08,147.42Z" transform="translate(-6.09 -35.59)"/><path class="cls-8" d="M139.34,151.36s-.54-.43-1.33.48a8.48,8.48,0,0,0-2,4.18c-.24,1.76-.36,2.79.43,2.54a2.4,2.4,0,0,0,1.69-2.54,10.41,10.41,0,0,0-.6-1.88A3.49,3.49,0,0,1,139.34,151.36Z" transform="translate(-6.09 -35.59)"/><path class="cls-5" d="M89.85,145.14s.26,9.34,0,11.67,2.85,15.31,5.45,19.72,8.56,8.3,16.08,8.3,17.12-7.26,20.23-14.27,3.89-18.67,3.89-18.67-.25-14.53-3.89-21-8.56-11.93-16.86-12.19-19.19,4.15-22.83,11.16S89.85,145.14,89.85,145.14Z" transform="translate(-6.09 -35.59)"/><path class="cls-12" d="M131.61,170.56c3.11-7,3.89-18.67,3.89-18.67s-.06-3.07-.46-7a2.15,2.15,0,0,0-.53,1.36,63.47,63.47,0,0,1-3.35,22.54c-3.5,9.83-14.68,15.08-23.54,13.81S94,173.75,94,173.71a21.13,21.13,0,0,0,1.32,2.82c2.59,4.41,8.56,8.3,16.08,8.3S128.5,177.57,131.61,170.56Z" transform="translate(-6.09 -35.59)"/><path class="cls-12" d="M131.61,130.87c-3.63-6.48-8.56-11.93-16.86-12.19s-19.19,4.15-22.83,11.16a20.29,20.29,0,0,0-1.22,3l1.19,4.12s3.87-5.48,9.7-3.73,11.87,2.92,15.18,2.14L112,130.47s9.06,3.3,14.31,2.91,2.53,1.56,2.53,2.92-.88,4.12,2.66,6.36c1.74,1.09,2.63,0,3.08-1.4C134,137.48,133.09,133.52,131.61,130.87Z" transform="translate(-6.09 -35.59)"/><path class="cls-13" d="M135.5,151.89s.12-4.8-1.88-7.2c-2.84-3.42-3.94-1.55-3.16-7.24a36.45,36.45,0,0,0,.15-6s-1.07,1-7.42.77a46.93,46.93,0,0,1-11.81-2.12l6.36,3.93s-5.06,1-8.56.13-7.14-2.38-9.86-1.73-7.43,4.49-7.43,4.49-2.07,7.06-2,8.22.09,9.73.09,9.73a78,78,0,0,0-2.42-7.78c-1.17-2.86-1.36-10.14.07-14.68s-.59-12.19-2.15-13.1a13.75,13.75,0,0,1-3-2.59s6.36.52,10.77-2,18-5.57,25.42-5.18a10.76,10.76,0,0,1,9.6,6.61A5.78,5.78,0,0,0,126,110s3.51,1.81,4.41,4.14c0,0,3.37-1.16,5.19.78,0,0-2.47-1-3.51.78s4.93,1.7,6.74,4.82,2.6,8.17,2.34,14.27S139.78,149,139.78,149,137.39,144.08,135.5,151.89Z" transform="translate(-6.09 -35.59)"/><path class="cls-14" d="M133.62,144.69c2,2.4,1.88,7.2,1.88,7.2,1.89-7.81,4.28-2.89,4.28-2.89s1.17-8.14,1.43-14.23-.52-11.16-2.34-14.27-7.77-3-6.74-4.82a2.52,2.52,0,0,1,3-.94c-2.9-.92-4,.76-3.82,2s1.9.86,3.43,2.2,1.7,2.21,1.7,2.21,1.3,3,2.11,4.51c-1.57-1.23-5.81-2.57-5.81-2.57,4.08,1.37,6.81,8.37,6.81,9.15s-.78,5.83-2.14,8-4.28-1-4.67-2.33.39-6,.19-7-2.14-2.91-2.14-2.91-3.5.78-10.7,1.75-16.14-2.92-16.14-2.92c1.75,2.53,7.19,5.45,7.19,5.45-4.48-.5-10.3-1.75-13.22-.39s-7,1.75-7.78,3.69-2,10.12-2,10.12l-.58-4.28c-.59-4.28,1.36-5.64,1.55-10.31s-1.65-7.18-1.65-7.18h0a17.62,17.62,0,0,1,.11,8.53c-1.43,4.54-1.24,11.82-.07,14.68a78,78,0,0,1,2.42,7.78s-.06-8.56-.09-9.73,2-8.22,2-8.22,4.7-3.84,7.43-4.49,6.36.82,9.86,1.73,8.56-.13,8.56-.13l-6.36-3.93a46.93,46.93,0,0,0,11.81,2.12c6.35.26,7.42-.77,7.42-.77a36.45,36.45,0,0,1-.15,6C129.68,143.14,130.78,141.27,133.62,144.69Z" transform="translate(-6.09 -35.59)"/><path class="cls-15" d="M124.55,116.85a7.06,7.06,0,0,0-6.23-4.09c-4.47,0-18.09,2.53-19.84,2.92s11.28-3.7,14.78-4.28S123.22,110.43,124.55,116.85Z" transform="translate(-6.09 -35.59)"/><path class="cls-13" d="M103.63,140.9c-1.19,1-5.15,1.84-6.6,1.84s-2.76,2.51-3,2.9,1.72-1.45,4.09-1.71C98.09,143.93,103.11,143.8,103.63,140.9Z" transform="translate(-6.09 -35.59)"/><path class="cls-13" d="M102.83,149.92a5.32,5.32,0,0,0-3.3-.66c-1.84.27-3.82.53-3.82.53s-.13.39,1.19.53,3.13-.61,3.82-.42a16.79,16.79,0,0,1,1.65.56,10.24,10.24,0,0,0-3.1.51c-.76.44-1.58.63-1.58.89s.69.06,2-.45a11.19,11.19,0,0,1,4-.63C104.58,150.84,104.71,150.56,102.83,149.92Z" transform="translate(-6.09 -35.59)"/><path class="cls-13" d="M117.78,140.9c1.19,1,5.15,1.84,6.6,1.84s2.77,2.51,3,2.9-1.72-1.45-4.09-1.71C123.32,143.93,118.3,143.8,117.78,140.9Z" transform="translate(-6.09 -35.59)"/><path class="cls-13" d="M118.58,149.92a5.32,5.32,0,0,1,3.3-.66c1.84.27,3.82.53,3.82.53s.13.39-1.19.53-3.13-.61-3.82-.42a16.79,16.79,0,0,0-1.65.56,10.24,10.24,0,0,1,3.1.51c.76.44,1.58.63,1.58.89s-.69.06-2-.45a11.21,11.21,0,0,0-4-.63C116.83,150.84,116.7,150.56,118.58,149.92Z" transform="translate(-6.09 -35.59)"/><path class="cls-8" d="M109,152.06a7.4,7.4,0,0,1-.39,3.85c-.78,1.55-2.1.31-2,2.78s4,4.22,4,4.22-3.63-.51-4.47-2.48-1.9-3.8.43-4S108.19,153.62,109,152.06Z" transform="translate(-6.09 -35.59)"/><path class="cls-8" d="M104.7,170.28s5.11-2.93,11,1.46C115.65,171.74,106.18,170.2,104.7,170.28Z" transform="translate(-6.09 -35.59)"/><path class="cls-24" d="M115.65,171.74s12.08-5.83,12.94-6.32.18-1.69-.56-2-14.43,8-14.43,8Z" transform="translate(-6.09 -35.59)"/><path class="cls-25" d="M128,163.42a7.15,7.15,0,0,0-2.25,1l1.33,1.79c.78-.38,1.32-.65,1.48-.74C129.46,164.92,128.77,163.73,128,163.42Z" transform="translate(-6.09 -35.59)"/><path class="cls-21" d="M77.13,133s.5-6.75,2.1-8.2,4.18-3.62,4.18-3.62,1.73-.49,1.09,1a23.62,23.62,0,0,1-3.39,4.35s-1.08,5.36-1.29,5.92S77.13,133,77.13,133Z" transform="translate(-6.09 -35.59)"/><path class="cls-5" d="M75.57,146s1-12.47,2.22-15.64,1.47-3,6.16-5.1c4.23-1.86,8.36-3.11,9.25-1.85s-.49,1.5-2.33,1.89a14.92,14.92,0,0,0-6.81,3.47,3.87,3.87,0,0,0-1.3,1.82s3.44-1.58,6-2.41,3-.93,4.87-.57,2.27.51,2.22,1.58-1.78.59-3.67.64a13.36,13.36,0,0,0-7,3.2,3.13,3.13,0,0,0-.92,1.81,12.92,12.92,0,0,1,2.8-2.29c1.24-.62,2.45-.56,5.15-.83s3.85.09,2.85,1.26-4.3,1.09-5.67,1.43-2.39,2.18-3.8,6.42-2.07,9.46-4.44,11.23-9.5,18.67-12.91,28.06-5.68,23.16-13.68,24.53-12.77-3.3-11.46-11.18,12.3-20.82,17.9-28.1S75.57,146,75.57,146Z" transform="translate(-6.09 -35.59)"/><g class="cls-19"><path class="cls-5" d="M89.83,134c-1,.17-2,.08-3.13,2.35s-2,7.77-2,7.77h0c.29-1.09.58-2.18.93-3.21,1.41-4.24,2.44-6.08,3.8-6.42.77-.19,2.17-.26,3.41-.49A16.08,16.08,0,0,0,89.83,134Z" transform="translate(-6.09 -35.59)"/><path class="cls-5" d="M91.51,129.94Z" transform="translate(-6.09 -35.59)"/><path class="cls-5" d="M88.8,132.08a5.73,5.73,0,0,0-1.69.5,12.92,12.92,0,0,0-2.8,2.29,3.13,3.13,0,0,1,.92-1.81A14.08,14.08,0,0,1,91.42,130c-.68.12-4.46.75-5.77,1.74s-1,.87-1.57,2.08a2.79,2.79,0,0,0-.26,1.92s1.4-1.22,2.18-1.74S88.25,132.32,88.8,132.08Z" transform="translate(-6.09 -35.59)"/><path class="cls-5" d="M84.08,130.56c1-.62,5.58-2.61,5.58-2.61h0l-.86.26c-2.6.83-6,2.41-6,2.41a3.87,3.87,0,0,1,1.3-1.82,14.92,14.92,0,0,1,6.81-3.47c.6-.13,1.14-.24,1.58-.38,0,0-4.19.21-5.49,1.08s-3.66,2.26-4.09,2.69a6.56,6.56,0,0,0-1.14,2.18C81.73,131.16,82.59,131.47,84.08,130.56Z" transform="translate(-6.09 -35.59)"/></g><path class="cls-17" d="M152.53,160.3a7,7,0,0,1-6.94-6.94,6.86,6.86,0,0,1,3.59-6.07V128.76a3.35,3.35,0,1,1,6.69,0v18.53a6.86,6.86,0,0,1,3.6,6.07A7,7,0,0,1,152.53,160.3Z" transform="translate(-6.09 -35.59)"/><path class="cls-22" d="M153.93,148.58V128.76a1.41,1.41,0,1,0-2.8,0v19.82a5,5,0,1,0,2.8,0Z" transform="translate(-6.09 -35.59)"/><path class="cls-10" d="M153.93,128.76a1.41,1.41,0,1,0-2.8,0v2.57h2.8Z" transform="translate(-6.09 -35.59)"/><text class="cls-26" transform="translate(572.67 144.29) scale(0.95 1)">одыш<tspan class="cls-27" x="38.6" y="0">к</tspan><tspan x="46.08" y="0">а</tspan></text><text class="cls-28" transform="translate(341.77 144.29) scale(0.95 1)"><tspan class="cls-29">к</tspan><tspan x="8.06" y="0">ашель</tspan></text><text class="cls-26" transform="translate(776.29 144.29) scale(0.95 1)">боль в мышцах</text><text class="cls-26" transform="translate(154.98 144.29) scale(0.95 1)">темпера<tspan class="cls-30" x="54.65" y="0">т</tspan><tspan x="61.72" y="0">ура </tspan></text></g><text class="cls-31" transform="translate(105.07 37.46)">Симптомы</text><text class="cls-28" transform="translate(258.15 28.86)">В подавляющем большинстве случаев эти симптомы связаны не с <tspan class="cls-32" x="0" y="16.8">к</tspan><tspan x="7.7" y="16.8">оронавиру</tspan><tspan class="cls-33" x="82.35" y="16.8">с</tspan><tspan x="89" y="16.8">ом, а с обычной ОРВИ.</tspan></text></g></g></svg>