<svg id="Слой_1" data-name="Слой 1" xmlns="http://www.w3.org/2000/svg" viewBox="0 0 79.5 91.7"><defs><style>.cls-1{fill:#009ac7;}.cls-2{fill:#fff;}.cls-3{font-size:12.38px;fill:#005596;font-family:Ubuntu-Bold, Ubuntu;font-weight:700;}.cls-4{letter-spacing:0.02em;}.cls-5{letter-spacing:0em;}</style></defs><title>mask</title><path class="cls-1" d="M84.83,37.64A35.34,35.34,0,1,1,49.5,2.3,35.33,35.33,0,0,1,84.83,37.64Z" transform="translate(-10.23 -2.3)"/><path class="cls-2" d="M62,37.64a4.91,4.91,0,0,0,2.1-3.57A6.52,6.52,0,0,0,64,31.13a2.05,2.05,0,0,0-1.46-1.61,1.24,1.24,0,0,0-.43,0c-.4-8.1-2.77-13.1-12.79-13.1-11.4,0-12.69,6.14-12.85,13.1a1.42,1.42,0,0,0-.36,0c-1.29.23-2,2.23-1.55,4.55a5,5,0,0,0,2.09,3.57A23.1,23.1,0,0,0,41,49c1,10.32-5.44,12.06-5.72,12.13a.37.37,0,0,0-.28.34.35.35,0,0,0,.24.36c4.28,1.61,13.63,2.49,14.1,2.53s9.74-.92,14-2.53a.36.36,0,0,0,.24-.36.37.37,0,0,0-.28-.34C63.08,61,56.59,59.28,57.63,49A23.06,23.06,0,0,0,62,37.64ZM37.12,37c-.67-.22-1.52-1.36-1.83-3.1-.36-2,.21-3.56,1.05-3.7a.83.83,0,0,1,.35.08.35.35,0,0,0,.34,0,.34.34,0,0,0,.17-.3c.13-7.28,1.11-12.85,12.13-12.85C59,17.14,61.08,21.87,61.41,30a.36.36,0,0,0,.17.3.39.39,0,0,0,.35,0,.85.85,0,0,1,.49-.1c.37.07.69.47.88,1.1a5.74,5.74,0,0,1,.08,2.6c-.32,1.74-1.16,2.88-1.83,3.1a.34.34,0,0,0-.25.3,22.76,22.76,0,0,1-4,10.83.35.35,0,0,0-.31.29.53.53,0,0,0,0,.13c-2.13,2.68-4.81,4.32-7.6,4.32s-5.46-1.64-7.59-4.32c0-.05,0-.08,0-.13a.36.36,0,0,0-.31-.29,22.55,22.55,0,0,1-4.05-10.83A.35.35,0,0,0,37.12,37ZM62.2,61.42c-4.52,1.38-12.81,2.16-12.83,2.17S41,62.8,36.48,61.43a8.66,8.66,0,0,0,2.67-2c1.43-1.58,3-4.51,2.69-9.5a10.29,10.29,0,0,0,7.49,3.73,10.28,10.28,0,0,0,7.48-3.71C56.38,57.64,60.31,60.5,62.2,61.42Z" transform="translate(-10.23 -2.3)"/><path class="cls-2" d="M37,30.54s2.06-2.32,2.06-4.65a31.51,31.51,0,0,1,.35-4.47,5.37,5.37,0,0,1,5.14-.71l-2.06,1.43s9.78,2.86,13.38-2c0,0,3.77.36,3.77,2s.18,6.08,1.89,8.76a3,3,0,0,0,1.71-2.69c.18-2.14,1.38-9.47-2.91-12,0,0-.69-5.9-9.26-5.36S42,11.77,38.38,15,34.09,25.53,37,30.54Z" transform="translate(-10.23 -2.3)"/><path class="cls-2" d="M55.13,36.08c-2.14-.54-4.47-1.89-5.9-1.36-1.43-.53-3.75.82-5.89,1.36s-6.62-1.25-6.62-1.25.18,1.25,1.43,8,11.08,8.57,11.08,8.57,9.83-1.78,11.08-8.57,1.43-8,1.43-8S57.28,36.61,55.13,36.08Z" transform="translate(-10.23 -2.3)"/><text class="cls-3" transform="translate(0 88.96) scale(0.95 1)">Носить мас<tspan class="cls-4" x="69.36" y="0">к</tspan><tspan class="cls-5" x="76.92" y="0">у</tspan></text></svg>