<svg id="Слой_1" data-name="Слой 1" xmlns="http://www.w3.org/2000/svg" viewBox="0 0 89.45 88.18"><defs><style>.cls-1{fill:#009ac7;}.cls-2{fill:#fff;}.cls-3{font-size:7px;fill:#005596;font-family:Ubuntu-Bold, Ubuntu;font-weight:700;}</style></defs><title>peoples</title><path class="cls-1" d="M81.9,33.37A31.07,31.07,0,1,1,50.83,2.3,31.08,31.08,0,0,1,81.9,33.37Z" transform="translate(-5.22 -2.3)"/><path class="cls-2" d="M61.31,26.18a4.14,4.14,0,0,0,1-2.29,16.7,16.7,0,0,1,.16-2.2A2.69,2.69,0,0,1,65,21.34l-1,.71s4.81,1.4,6.59-1c0,0,1.85.18,1.85,1a9.15,9.15,0,0,0,.93,4.31A1.47,1.47,0,0,0,74.23,25c.08-1.06.67-4.66-1.44-5.89,0,0-.34-2.91-4.56-2.64s-4.47.44-6.24,2S59.88,23.72,61.31,26.18Z" transform="translate(-5.22 -2.3)"/><path class="cls-2" d="M28.55,26.18a4.16,4.16,0,0,0,1-2.29,15.74,15.74,0,0,1,.17-2.2,2.66,2.66,0,0,1,2.53-.35l-1,.71s4.81,1.4,6.58-1c0,0,1.86.18,1.86,1a9,9,0,0,0,.93,4.31A1.45,1.45,0,0,0,41.46,25c.09-1.06.68-4.66-1.43-5.89,0,0-.34-2.91-4.56-2.64s-4.47.44-6.25,2S27.11,23.72,28.55,26.18Z" transform="translate(-5.22 -2.3)"/><path class="cls-2" d="M73.75,29.77a2.62,2.62,0,0,0,1-1.82c.22-1.24-.15-2.28-.88-2.41h-.1c-.17-3.19-1-6.44-6.43-6.44-5.67,0-6.37,3-6.47,6.44h-.06c-.72.13-1.1,1.17-.88,2.41a2.65,2.65,0,0,0,1,1.82,11.49,11.49,0,0,0,2.15,5.52c.48,4.92-2.58,5.76-2.72,5.79a.34.34,0,0,0-.24.3.31.31,0,0,0,.21.32,36.67,36.67,0,0,0,7,1.25,37.27,37.27,0,0,0,7-1.25.33.33,0,0,0,0-.62s-3.2-.84-2.71-5.79A11.49,11.49,0,0,0,73.75,29.77Zm-12.34-.52a1.88,1.88,0,0,1-.8-1.42c-.17-.94.1-1.61.37-1.65a.25.25,0,0,1,.12,0,.32.32,0,0,0,.3,0,.33.33,0,0,0,.15-.27c.06-3.5.53-6.18,5.83-6.18,4.64,0,5.64,2.28,5.8,6.2a.32.32,0,0,0,.15.26.31.31,0,0,0,.31,0,.41.41,0,0,1,.16,0c.25,0,.52.71.35,1.65a1.88,1.88,0,0,1-.8,1.42.31.31,0,0,0-.22.27,11.11,11.11,0,0,1-1.95,5.23A.31.31,0,0,0,71,35v0a4.2,4.2,0,0,1-7.2,0v0a.29.29,0,0,0-.2-.24,11.11,11.11,0,0,1-1.95-5.23A.31.31,0,0,0,61.41,29.25ZM73.34,41.34a46.79,46.79,0,0,1-5.93,1,45.72,45.72,0,0,1-6-1c1-.59,2.49-2,2.42-5.27a4.66,4.66,0,0,0,7.08,0C70.85,39.3,72.35,40.75,73.34,41.34Z" transform="translate(-5.22 -2.3)"/><path class="cls-2" d="M41.8,41.38a.34.34,0,0,0-.25-.3s-3.19-.84-2.71-5.79A11.49,11.49,0,0,0,41,29.77,2.59,2.59,0,0,0,42,28c.23-1.24-.15-2.28-.87-2.41H41c-.16-3.19-.94-6.44-6.43-6.44-5.66,0-6.36,3-6.46,6.44h-.07c-.72.13-1.1,1.17-.87,2.41a2.59,2.59,0,0,0,1,1.82,11.49,11.49,0,0,0,2.14,5.52c.48,4.92-2.58,5.76-2.71,5.79a.34.34,0,0,0-.25.3.32.32,0,0,0,.21.32,36.93,36.93,0,0,0,7,1.25,37.27,37.27,0,0,0,7-1.25A.32.32,0,0,0,41.8,41.38ZM28.65,29.25a1.88,1.88,0,0,1-.81-1.42c-.17-.94.1-1.61.38-1.65a.25.25,0,0,1,.12,0,.32.32,0,0,0,.3,0,.36.36,0,0,0,.15-.27c.06-3.5.53-6.18,5.82-6.18,4.65,0,5.65,2.28,5.8,6.2a.37.37,0,0,0,.16.27.32.32,0,0,0,.3,0,.45.45,0,0,1,.16,0c.26,0,.53.71.36,1.65a1.88,1.88,0,0,1-.81,1.42.33.33,0,0,0-.22.27,11,11,0,0,1-1.94,5.23.29.29,0,0,0-.2.24v0a4.76,4.76,0,0,1-3.6,2A4.75,4.75,0,0,1,31,35v0a.29.29,0,0,0-.2-.24,11,11,0,0,1-1.94-5.23A.33.33,0,0,0,28.65,29.25Zm6,13.06a46,46,0,0,1-6-1c1-.59,2.49-2,2.43-5.27a5.07,5.07,0,0,0,3.53,1.63,5.08,5.08,0,0,0,3.54-1.63c-.06,3.23,1.44,4.68,2.43,5.27A46.84,46.84,0,0,1,34.64,42.31Z" transform="translate(-5.22 -2.3)"/><path class="cls-2" d="M59,32.42h-.2c-.2-4.06-1.16-8.23-8.13-8.23-7.21,0-8.06,3.85-8.18,8.23h-.15c-.87.16-1.33,1.44-1,3a3.22,3.22,0,0,0,1.32,2.28,14.61,14.61,0,0,0,2.75,7.1c.63,6.38-3.36,7.47-3.54,7.51a.32.32,0,0,0-.24.29.32.32,0,0,0,.21.33c2.71,1,8.6,1.57,8.91,1.59s6.14-.58,8.85-1.59a.32.32,0,0,0,.21-.33.32.32,0,0,0-.24-.29c-.18,0-4.18-1.13-3.54-7.52a14.52,14.52,0,0,0,2.74-7.08A3.22,3.22,0,0,0,60,35.4a4.27,4.27,0,0,0-.06-1.9A1.41,1.41,0,0,0,59,32.42Zm-.48,20.14a57.13,57.13,0,0,1-7.82,1.3,56.26,56.26,0,0,1-7.88-1.3c1.25-.67,3.41-2.5,3.25-7a5.95,5.95,0,0,0,9.21,0C55.06,50.05,57.23,51.89,58.47,52.56Zm.89-17.28a2.45,2.45,0,0,1-1.08,1.88.32.32,0,0,0-.23.27,14.18,14.18,0,0,1-2.51,6.75.3.3,0,0,0-.23.24v.06a6.22,6.22,0,0,1-4.69,2.66,6.22,6.22,0,0,1-4.69-2.66v-.06a.33.33,0,0,0-.23-.25,14.21,14.21,0,0,1-2.52-6.74.32.32,0,0,0-.21-.27,2.42,2.42,0,0,1-1.09-1.88c-.21-1.18.1-2.14.57-2.22a.45.45,0,0,1,.18,0,.29.29,0,0,0,.3,0,.33.33,0,0,0,.15-.27c.08-4.52.69-8,7.54-8,6,0,7.3,2.94,7.5,8a.37.37,0,0,0,.16.27.34.34,0,0,0,.31,0,.58.58,0,0,1,.25,0c.19,0,.37.27.48.63A3.5,3.5,0,0,1,59.36,35.28Z" transform="translate(-5.22 -2.3)"/><path class="cls-2" d="M42.86,33.15a5.31,5.31,0,0,0,1.3-2.92,20.7,20.7,0,0,1,.21-2.81A3.4,3.4,0,0,1,47.61,27l-1.29.9s6.15,1.8,8.41-1.24c0,0,2.38.23,2.38,1.24s.1,3.82,1.18,5.51a1.85,1.85,0,0,0,1.08-1.69c.11-1.35.87-6-1.83-7.53,0,0-.43-3.71-5.83-3.37s-5.72.56-8,2.58S41,30,42.86,33.15Z" transform="translate(-5.22 -2.3)"/><text class="cls-3" transform="translate(0 78.23) scale(0.95 1)">Избегайте многолюдности<tspan x="36.85" y="8.4">места</tspan></text></svg>