<svg id="Слой_1" data-name="Слой 1" xmlns="http://www.w3.org/2000/svg" viewBox="0 0 77.5 84"><defs><style>.cls-1{fill:#009ac7;}.cls-2{fill:#fff;}.cls-3{font-size:7px;fill:#005596;font-family:Ubuntu-Bold, Ubuntu;font-weight:700;}.cls-4{letter-spacing:-0.04em;}</style></defs><title>risk</title><path class="cls-1" d="M80.8,32.71A29.42,29.42,0,1,1,51.39,3.3,29.42,29.42,0,0,1,80.8,32.71Z" transform="translate(-11.21 -3.3)"/><path class="cls-2" d="M70.79,36.12a3.53,3.53,0,0,0-2-2.69l-4.33-1.82V30.52A.53.53,0,0,0,64,30a.54.54,0,0,0-.54.53v.65l-1.91-.81V28.92a.54.54,0,0,0-1.07,0v1l-1.73-.73V27.72a.54.54,0,1,0-1.07,0v1l-2.95-1.24.34-9.86a3.23,3.23,0,0,0-1.27-2.5l-1.07-.72a2.57,2.57,0,0,0-2.65,0L49,15.13a3.2,3.2,0,0,0-1.27,2.5l.34,9.86L44.48,29V27.72a.54.54,0,1,0-1.07,0v1.72l-1.74.73V28.92a.53.53,0,0,0-1.06,0v1.7l-1.92.81v-.91a.54.54,0,0,0-1.07,0v1.36l-3.69,1.55A3.53,3.53,0,0,0,32,36.12l-.1,1.09a1.39,1.39,0,0,0,1.74,1.56L48.36,35.9l.27,7.75-5.11,2.27a1.83,1.83,0,0,0-1,1.43l-.07.94a.74.74,0,0,0,.93.82l6.18-1.25,1.84-.3,1.93.32,6.05,1.23a.75.75,0,0,0,.94-.82l-.07-.94a1.88,1.88,0,0,0-1-1.43l-5.11-2.27.27-7.75,14.74,2.87a1.39,1.39,0,0,0,1.74-1.56ZM54.32,21.92H48.45V20.67h5.87Z" transform="translate(-11.21 -3.3)"/><text class="cls-3" transform="translate(0 74.05) scale(0.95 1)">Избегать рис<tspan class="cls-4" x="45.46" y="0">к</tspan><tspan x="49.31" y="0">ованного</tspan><tspan x="30.56" y="8.4">места</tspan></text></svg>