<svg id="Слой_1" data-name="Слой 1" xmlns="http://www.w3.org/2000/svg" viewBox="0 0 61.48 92.7"><defs><style>.cls-1{fill:#009ac7;}.cls-2{fill:#fff;}.cls-3{font-size:10.77px;fill:#005596;font-family:Ubuntu-Bold, Ubuntu;font-weight:700;}</style></defs><title>wash</title><path class="cls-1" d="M82,32A30.74,30.74,0,1,1,51.3,1.3,30.73,30.73,0,0,1,82,32Z" transform="translate(-20.55 -1.3)"/><path class="cls-2" d="M78.86,39.67a.35.35,0,0,0-.41,0c-.09.07-2.32,1.79-6.23.49-5.61-1.87-9.54-2-11.66-.42-.82.62-1.58,1.28-2.31,1.91S57,42.77,56.37,43.2h0c-.63.5-6-.19-8.38-1a3,3,0,0,0-2.69,0,1.23,1.23,0,0,0-.45.64,24,24,0,0,0-2.36-.49,1.65,1.65,0,0,0-1.42.39,1.56,1.56,0,0,0-.42.94,1.63,1.63,0,0,0-1.78.63,1.28,1.28,0,0,0-.33,1.15c.18.67,1,1.5,5.54,3s10,2.9,13.66,2.9a6.62,6.62,0,0,0,3.49-.73l.62-.41c2.4-1.58,4.88-3.21,8-1.86L73.36,50a.32.32,0,0,0,.41-.14l5.17-9.81A.34.34,0,0,0,78.86,39.67ZM45.68,42.8c.27-.2.85-.35,2.11.06A31.45,31.45,0,0,0,55,44a2.21,2.21,0,0,1-.48.15,16.58,16.58,0,0,1-2.85.11,34.33,34.33,0,0,1-6.05-1.13l-.18,0A.67.67,0,0,1,45.68,42.8Zm-4.16.48a1.05,1.05,0,0,1,.89-.21c.62.08,1.76.35,3.09.67,1,.24,2,.48,2.94.69a3.08,3.08,0,0,0-1.32.89,20.13,20.13,0,0,1-4.22-.87l-.5-.16-1.12-.37A1,1,0,0,1,41.52,43.28Zm31.82,6L70.08,47.9c-3.4-1.48-6.16.32-8.58,1.92l-.62.4C58.35,51.86,50.36,50,44.28,48c-3.22-1.09-5-2-5.13-2.6,0-.11,0-.28.21-.57a1,1,0,0,1,.82-.46,7.78,7.78,0,0,1,2,.54l.51.17a20.69,20.69,0,0,0,4.13.87,3.1,3.1,0,0,0,0,1c.09,1,1.11,1.05,2.67,1.18.54,0,1.17.1,1.88.2a8.29,8.29,0,0,0,5.51-1l.11,0a8.69,8.69,0,0,1,2.47-.42c1.93-.17,4.12-.37,5.21-1.62a.32.32,0,0,0,0-.45.31.31,0,0,0-.45,0c-.92,1-3.06,1.25-4.79,1.41a8.78,8.78,0,0,0-2.69.48l-.11,0a7.59,7.59,0,0,1-5.14.93c-.72-.09-1.36-.15-1.92-.2-1.38-.12-2-.19-2.08-.6a2,2,0,0,1,0-.86h.06a.33.33,0,0,0,.34-.3.29.29,0,0,0,0-.2,3.49,3.49,0,0,1,.91-.51,11.71,11.71,0,0,1,2.56-.1h.46a17.43,17.43,0,0,0,2.92-.12,5.44,5.44,0,0,0,2.09-1.06h0c.6-.44,1.23-1,1.9-1.57s1.47-1.27,2.27-1.87c1.92-1.45,5.75-1.27,11.07.5a8.11,8.11,0,0,0,5.86,0Z" transform="translate(-20.55 -1.3)"/><path class="cls-2" d="M55.59,24.53c-.55-4-4.79-3.46-4.79-3.46-5,.21-5.63-.81-5.63-.81V19.15h.66V16.68H43.92V13.42H42.23v-2.9a29.38,29.38,0,0,1,3.52.59c1.56.27,1.65-1.25,1.43-1.83s-.81-.76-1.84-.62S42,8.91,42,8.91a1,1,0,0,0-1.5,0s-2.34-.12-3.37-.25-1.61,0-1.83.62-.14,2.1,1.43,1.83a28.9,28.9,0,0,1,3.51-.59v2.9H38.52v3.26H36.61v2.47h.58v1H33v1.08h-9L23,25H33v1.08a6.93,6.93,0,0,1,3.83.89c3.48,2.14,7.41.29,9-.78a4.86,4.86,0,0,1,3.85-.69,1.81,1.81,0,0,1,1.72,2.27v1.52h4.3A19,19,0,0,0,55.59,24.53Z" transform="translate(-20.55 -1.3)"/><rect class="cls-2" x="51.48" y="31.25" width="0.82" height="0.55" transform="translate(-17.8 65.9) rotate(-67.26)"/><path class="cls-2" d="M50.17,34.9l.51.21-.56,1.33-.51-.21Zm.93-2.21.51.21-.56,1.33L50.54,34Z" transform="translate(-20.55 -1.3)"/><polygon class="cls-2" points="28.37 36.57 28.88 36.79 29.2 36.02 28.69 35.81 28.37 36.57"/><rect class="cls-2" x="55.1" y="31.12" width="0.55" height="0.82" transform="translate(-28.44 22.62) rotate(-22.79)"/><path class="cls-2" d="M57.65,36.23l-.51.21-.56-1.33.51-.21ZM56.72,34l-.51.21-.55-1.33.5-.21Z" transform="translate(-20.55 -1.3)"/><rect class="cls-2" x="57.65" y="37.19" width="0.55" height="0.83" transform="translate(-30.61 24.13) rotate(-22.84)"/><rect class="cls-2" x="32.8" y="30" width="0.55" height="0.82"/><path class="cls-2" d="M53.91,36.93h-.55V35.49h.55Zm0-2.4h-.55V33.09h.55Z" transform="translate(-20.55 -1.3)"/><rect class="cls-2" x="32.8" y="36.59" width="0.55" height="0.83"/><text class="cls-3" transform="translate(1.48 77.39) scale(0.95 1)">Мыть руки<tspan x="5.85" y="12.92">с мылом</tspan></text></svg>